<svg width="1920" height="1080" viewBox="0 0 1920 1080" fill="none" xmlns="http://www.w3.org/2000/svg">
<g clip-path="url(#clip0_2_340)">
<rect width="1920" height="1080" fill="#F0F0F0"/>
<path d="M1773.5 1031H1772.12L1772.7 1026.88H1770.22L1769.64 1031H1768.26L1768.84 1026.88H1766.9V1025.54H1769.04L1769.56 1021.68H1767.42V1020.32H1769.76L1770.34 1016.2H1771.72L1771.14 1020.32H1773.62L1774.2 1016.2H1775.58L1775 1020.32H1776.66V1021.68H1774.8L1774.26 1025.54H1776.1V1026.88H1774.08L1773.5 1031ZM1772.88 1025.54L1773.42 1021.68H1770.96L1770.42 1025.54H1772.88ZM1783.2 1031H1778.8V1016.2H1782.6C1785.7 1016.2 1787.36 1017.9 1787.36 1020.14C1787.36 1021.36 1786.92 1022.18 1785.74 1023.12C1787.32 1023.78 1788.2 1025.18 1788.2 1026.76C1788.2 1028.78 1787.06 1031 1783.2 1031ZM1780.28 1022.58H1782.62C1785.46 1022.58 1785.88 1020.94 1785.88 1020.08C1785.88 1018.98 1785.24 1017.54 1782.5 1017.54H1780.28V1022.58ZM1780.28 1029.66H1783.08C1784.98 1029.66 1786.72 1028.9 1786.72 1026.76C1786.72 1025.08 1785.26 1023.92 1783.08 1023.92H1780.28V1029.66ZM1791.68 1031H1790.2V1016.2H1797.68V1017.54H1791.68V1022.9H1797.46V1024.24H1791.68V1031ZM1807.73 1031H1806.25V1028.3H1798.79V1026.96L1805.97 1016.2H1807.73V1026.96H1809.07V1028.3H1807.73V1031ZM1806.25 1026.96V1018.24H1806.21L1800.49 1026.96H1806.25ZM1823.34 1027.12H1825C1823.56 1029.7 1820.98 1031.26 1818.18 1031.26C1813.96 1031.26 1810.44 1027.92 1810.44 1023.62C1810.44 1019.28 1813.9 1015.96 1818.16 1015.96C1820.9 1015.96 1823.76 1017.54 1824.94 1020H1823.28C1822.14 1018.3 1820.14 1017.3 1818.14 1017.3C1814.84 1017.3 1811.92 1020.22 1811.92 1023.64C1811.92 1026.96 1814.84 1029.92 1818.16 1029.92C1820.18 1029.92 1822 1028.9 1823.34 1027.12ZM1835.07 1031H1833.59V1028.3H1826.13V1026.96L1833.31 1016.2H1835.07V1026.96H1836.41V1028.3H1835.07V1031ZM1833.59 1026.96V1018.24H1833.55L1827.83 1026.96H1833.59ZM1846.29 1017.54H1840.81L1840.07 1021.62C1840.87 1021.18 1841.65 1020.92 1842.59 1020.92C1845.37 1020.92 1847.53 1023.22 1847.53 1026.1C1847.53 1028.9 1845.35 1031.26 1842.51 1031.26C1840.47 1031.26 1837.87 1029.94 1837.45 1026.34H1838.93C1839.17 1028.46 1840.61 1029.92 1842.51 1029.92C1844.57 1029.92 1846.05 1028.1 1846.05 1026.1C1846.05 1024 1844.55 1022.24 1842.53 1022.24C1841.35 1022.24 1840.27 1022.86 1839.45 1023.92L1838.29 1023.5L1839.63 1016.2H1846.29V1017.54Z" fill="#EEE7DF"/>
<rect x="1198" width="722" height="1080" fill="#FDFDFD"/>
<rect x="1198" width="722" height="535" fill="#1C242E"/>
<rect width="1198" height="535" fill="#56D44F"/>
<path d="M70.5911 355V347.191H71.4007V355H70.5911ZM75.4168 355L72.7643 351.559H73.7124L76.4076 355H75.4168ZM71.0705 352.049V351.325H73.1585C73.542 351.325 73.8615 351.25 74.1172 351.101C74.3729 350.952 74.5646 350.75 74.6925 350.494C74.8203 350.238 74.8842 349.947 74.8842 349.62C74.8842 349.294 74.8203 349.002 74.6925 348.747C74.5646 348.491 74.3729 348.289 74.1172 348.14C73.8615 347.983 73.542 347.905 73.1585 347.905H71.0705V347.191H73.02C73.5952 347.191 74.0817 347.284 74.4794 347.468C74.8842 347.646 75.1896 347.912 75.3955 348.267C75.6086 348.615 75.7151 349.042 75.7151 349.546V349.695C75.7151 350.199 75.6086 350.629 75.3955 350.984C75.1825 351.332 74.8771 351.598 74.4794 351.783C74.0817 351.96 73.5952 352.049 73.02 352.049H71.0705ZM77.5636 355V353.945H78.565V355H77.5636ZM77.5636 350.984V349.929H78.565V350.984H77.5636ZM85.2679 355.181C84.7139 355.181 84.2274 355.082 83.8084 354.883C83.3894 354.677 83.0627 354.4 82.8284 354.052C82.6011 353.704 82.4875 353.306 82.4875 352.859C82.4875 352.525 82.5549 352.227 82.6899 351.964C82.8319 351.694 83.0166 351.47 83.2438 351.293C83.4711 351.108 83.7197 350.973 83.9895 350.888V350.781C83.7694 350.696 83.567 350.579 83.3823 350.43C83.1977 350.274 83.045 350.086 82.9242 349.865C82.8106 349.645 82.7538 349.386 82.7538 349.088C82.7538 348.662 82.8639 348.296 83.084 347.99C83.3113 347.685 83.6131 347.451 83.9895 347.287C84.373 347.117 84.7991 347.032 85.2679 347.032C85.7508 347.032 86.1804 347.117 86.5568 347.287C86.9332 347.451 87.2315 347.685 87.4517 347.99C87.6718 348.296 87.7819 348.662 87.7819 349.088C87.7819 349.386 87.7251 349.645 87.6115 349.865C87.5049 350.086 87.3558 350.274 87.1641 350.43C86.9794 350.579 86.777 350.696 86.5568 350.781V350.888C86.8338 350.973 87.0859 351.108 87.3132 351.293C87.5405 351.477 87.7216 351.701 87.8565 351.964C87.9914 352.227 88.0589 352.525 88.0589 352.859C88.0589 353.306 87.9417 353.704 87.7073 354.052C87.4801 354.4 87.157 354.677 86.7379 354.883C86.326 355.082 85.836 355.181 85.2679 355.181ZM85.2679 354.499C85.694 354.499 86.0562 354.428 86.3544 354.286C86.6527 354.144 86.88 353.949 87.0362 353.7C87.1996 353.445 87.2812 353.154 87.2812 352.827C87.2812 352.5 87.2031 352.213 87.0469 351.964C86.8906 351.715 86.6634 351.52 86.3651 351.378C86.0668 351.236 85.7011 351.165 85.2679 351.165C84.8488 351.165 84.4902 351.236 84.1919 351.378C83.8936 351.52 83.6664 351.715 83.5101 351.964C83.3539 352.213 83.2758 352.5 83.2758 352.827C83.2758 353.154 83.3539 353.445 83.5101 353.7C83.6664 353.949 83.8936 354.144 84.1919 354.286C84.4902 354.428 84.8488 354.499 85.2679 354.499ZM85.2679 350.526C85.7934 350.526 86.2124 350.409 86.5249 350.174C86.8445 349.933 87.0043 349.581 87.0043 349.12C87.0043 348.658 86.8445 348.31 86.5249 348.076C86.2124 347.841 85.7934 347.724 85.2679 347.724C84.7494 347.724 84.3304 347.841 84.0108 348.076C83.6983 348.31 83.5421 348.658 83.5421 349.12C83.5421 349.581 83.7019 349.933 84.0215 350.174C84.3411 350.409 84.7565 350.526 85.2679 350.526ZM92.2977 355.202C91.7793 355.202 91.339 355.114 90.9768 354.936C90.6146 354.751 90.3198 354.496 90.0926 354.169C89.8724 353.842 89.7091 353.455 89.6025 353.008C89.496 352.553 89.4428 352.06 89.4428 351.527V351.08C89.4428 349.816 89.7375 348.85 90.3269 348.182C90.9164 347.508 91.797 347.17 92.9688 347.17C93.2103 347.17 93.4269 347.177 93.6187 347.191C93.8104 347.206 94.0164 347.227 94.2365 347.255V347.948C94.0164 347.912 93.8033 347.887 93.5973 347.873C93.3914 347.859 93.1677 347.852 92.9262 347.852C92.2586 347.852 91.7225 347.983 91.3177 348.246C90.9128 348.502 90.6181 348.875 90.4335 349.365C90.2559 349.855 90.1671 350.448 90.1671 351.144V351.9L89.9541 352.529C89.9612 351.989 90.0642 351.531 90.263 351.154C90.469 350.778 90.7566 350.49 91.1259 350.291C91.4952 350.093 91.9284 349.993 92.4255 349.993C92.9795 349.993 93.4482 350.107 93.8317 350.334C94.2152 350.561 94.5028 350.87 94.6946 351.261C94.8934 351.651 94.9929 352.088 94.9929 352.571C94.9929 353.061 94.8899 353.505 94.6839 353.903C94.4851 354.3 94.1868 354.616 93.7891 354.851C93.3914 355.085 92.8943 355.202 92.2977 355.202ZM92.2977 354.499C92.7238 354.499 93.0789 354.414 93.363 354.244C93.6542 354.073 93.8708 353.842 94.0128 353.551C94.1548 353.26 94.2259 352.933 94.2259 352.571C94.2259 352.209 94.1548 351.886 94.0128 351.602C93.8779 351.311 93.6684 351.083 93.3843 350.92C93.1073 350.75 92.7629 350.664 92.351 350.664C91.9462 350.664 91.5911 350.742 91.2857 350.899C90.9874 351.055 90.7531 351.279 90.5826 351.57C90.4193 351.854 90.3376 352.191 90.3376 352.582C90.3376 352.916 90.4086 353.228 90.5506 353.519C90.6927 353.81 90.9093 354.048 91.2005 354.233C91.4916 354.411 91.8574 354.499 92.2977 354.499Z" fill="#1C242E"/>
<path d="M73.9894 371.181C73.3502 371.181 72.7821 371.075 72.2849 370.862C71.7949 370.648 71.383 370.357 71.0492 369.988C70.7154 369.612 70.4597 369.182 70.2822 368.699C70.1118 368.209 70.0265 367.694 70.0265 367.154V366.963C70.0265 366.465 70.1082 365.983 70.2715 365.514C70.442 365.045 70.687 364.623 71.0066 364.246C71.3262 363.87 71.7239 363.571 72.1997 363.351C72.6755 363.131 73.2153 363.021 73.8189 363.021C74.451 363.021 75.012 363.142 75.5021 363.383C75.9921 363.618 76.3863 363.948 76.6845 364.374C76.9899 364.8 77.1675 365.294 77.2172 365.855H76.3969C76.3401 365.4 76.1874 365.017 75.9388 364.704C75.6974 364.392 75.392 364.157 75.0227 364.001C74.6534 363.845 74.2521 363.767 73.8189 363.767C73.3644 363.767 72.9525 363.848 72.5832 364.012C72.2139 364.175 71.9014 364.406 71.6458 364.704C71.3901 365.002 71.1912 365.354 71.0492 365.759C70.9143 366.157 70.8468 366.593 70.8468 367.069C70.8468 367.573 70.9178 368.035 71.0599 368.454C71.2019 368.866 71.4078 369.221 71.6777 369.519C71.9476 369.818 72.2743 370.048 72.6578 370.212C73.0484 370.375 73.4922 370.457 73.9894 370.457C74.6001 370.457 75.1363 370.34 75.5979 370.105C76.0667 369.864 76.4289 369.548 76.6845 369.157L76.3649 370.158V367.857H77.1319V369.796C76.7982 370.229 76.3649 370.57 75.8323 370.819C75.2997 371.06 74.6854 371.181 73.9894 371.181ZM73.7017 368.028V367.346H77.8244V368.028H73.7017ZM79.1033 371V369.945H80.1047V371H79.1033ZM79.1033 366.984V365.929H80.1047V366.984H79.1033ZM84.3254 371V369.818C84.3254 369.512 84.368 369.253 84.4533 369.04C84.5385 368.827 84.6876 368.632 84.9007 368.454C85.1137 368.276 85.4049 368.106 85.7742 367.943L87.2975 367.229C87.6668 367.058 87.9616 366.835 88.1817 366.558C88.4019 366.281 88.512 365.919 88.512 365.471C88.512 364.924 88.3557 364.498 88.0432 364.193C87.7379 363.88 87.3153 363.724 86.7756 363.724C86.2429 363.724 85.8168 363.88 85.4972 364.193C85.1847 364.498 85.0285 364.924 85.0285 365.471H84.2508C84.2508 365.01 84.3467 364.594 84.5385 364.225C84.7302 363.856 85.0143 363.564 85.3907 363.351C85.7671 363.131 86.2287 363.021 86.7756 363.021C87.3295 363.021 87.7911 363.131 88.1604 363.351C88.5297 363.564 88.8102 363.852 89.002 364.214C89.1937 364.569 89.2896 364.963 89.2896 365.397V365.546C89.2896 366.1 89.1298 366.565 88.8102 366.941C88.4978 367.311 88.0859 367.616 87.5745 367.857L86.0405 368.571C85.6783 368.735 85.4333 368.905 85.3055 369.082C85.1847 369.253 85.1244 369.473 85.1244 369.743V370.691L84.89 370.308H89.4175V371H84.3254ZM92.2645 371V363.639L92.616 363.916H90.4961V363.223H93.0635V371H92.2645ZM97.6017 371.181C97.0336 371.181 96.5506 371.071 96.1529 370.851C95.7623 370.631 95.4641 370.332 95.2581 369.956C95.0521 369.58 94.9492 369.168 94.9492 368.72H95.7268C95.7268 369.26 95.8937 369.69 96.2275 370.009C96.5613 370.322 97.0194 370.478 97.6017 370.478C97.9781 370.478 98.3048 370.407 98.5818 370.265C98.8659 370.123 99.0825 369.921 99.2316 369.658C99.3878 369.395 99.466 369.09 99.466 368.742C99.466 368.209 99.2991 367.779 98.9653 367.453C98.6315 367.126 98.1805 366.963 97.6124 366.963C97.3851 366.963 97.1898 366.991 97.0265 367.048C96.8631 367.098 96.7175 367.161 96.5897 367.24L96.1529 366.494L99.2529 364.086L99.1677 363.916H95.2581V363.223H99.9134V364.374L97.165 366.515L96.643 366.526C96.7708 366.469 96.9164 366.423 97.0797 366.387C97.2431 366.345 97.4313 366.323 97.6443 366.323C98.1912 366.323 98.6563 366.43 99.0398 366.643C99.4305 366.856 99.7287 367.14 99.9347 367.495C100.141 367.85 100.244 368.241 100.244 368.667V368.816C100.244 369.228 100.141 369.615 99.9347 369.977C99.7287 370.34 99.4305 370.631 99.0398 370.851C98.6492 371.071 98.1699 371.181 97.6017 371.181Z" fill="#1C242E"/>
<path d="M71.1983 387.032V386.318H73.478C73.9397 386.318 74.2983 386.187 74.554 385.924C74.8167 385.654 74.9481 385.299 74.9481 384.859C74.9481 384.426 74.8203 384.078 74.5646 383.815C74.309 383.545 73.9468 383.41 73.478 383.41H71.1983V382.877H73.3609C73.8296 382.877 74.245 382.945 74.6072 383.08C74.9694 383.208 75.2535 383.414 75.4595 383.698C75.6654 383.982 75.7684 384.355 75.7684 384.816V384.944C75.7684 385.363 75.6796 385.732 75.5021 386.052C75.3245 386.364 75.0582 386.606 74.7031 386.776C74.348 386.947 73.9006 387.032 73.3609 387.032H71.1983ZM70.5911 387.032V379.191H71.4007V387.032H70.5911ZM71.1983 383.261V382.728H73.1904C73.6804 382.728 74.0426 382.597 74.277 382.334C74.5114 382.064 74.6285 381.727 74.6285 381.322C74.6285 380.903 74.5114 380.562 74.277 380.299C74.0426 380.037 73.6804 379.905 73.1904 379.905H71.1983V379.191H73.0519C73.8544 379.191 74.4545 379.373 74.8522 379.735C75.25 380.097 75.4488 380.598 75.4488 381.237V381.365C75.4488 381.812 75.3494 382.178 75.1505 382.462C74.9517 382.739 74.6712 382.941 74.309 383.069C73.9539 383.197 73.5349 383.261 73.0519 383.261H71.1983ZM77.418 387V385.945H78.4194V387H77.418ZM77.418 382.984V381.929H78.4194V382.984H77.418ZM83.3858 387L86.6669 380.022L86.603 379.916H82.3418V379.223H87.3806V380.214L84.2167 387H83.3858ZM82.3418 381.216V379.223H83.0236V381.216H82.3418ZM91.0924 379.021C91.6108 379.021 92.0511 379.113 92.4133 379.298C92.7755 379.476 93.0667 379.728 93.2868 380.054C93.5141 380.381 93.681 380.772 93.7875 381.226C93.894 381.674 93.9473 382.164 93.9473 382.696V383.144C93.9473 384.408 93.6526 385.377 93.0631 386.052C92.4737 386.719 91.593 387.053 90.4212 387.053C90.1798 387.053 89.9632 387.046 89.7714 387.032C89.5797 387.018 89.3737 386.996 89.1535 386.968V386.276C89.3737 386.311 89.5868 386.336 89.7927 386.35C89.9987 386.364 90.2224 386.371 90.4638 386.371C91.1314 386.371 91.6676 386.244 92.0724 385.988C92.4772 385.725 92.7684 385.349 92.9459 384.859C93.1306 384.369 93.2229 383.776 93.2229 383.08V382.323L93.436 381.695C93.4289 382.235 93.3223 382.693 93.1164 383.069C92.9175 383.446 92.6335 383.733 92.2642 383.932C91.8949 384.131 91.4617 384.23 90.9645 384.23C90.4106 384.23 89.9419 384.117 89.5584 383.889C89.1749 383.662 88.8837 383.353 88.6848 382.963C88.4931 382.572 88.3972 382.135 88.3972 381.652C88.3972 381.162 88.4966 380.718 88.6955 380.321C88.9014 379.923 89.2033 379.607 89.601 379.373C89.9987 379.138 90.4958 379.021 91.0924 379.021ZM91.0924 379.724C90.6662 379.724 90.3076 379.809 90.0164 379.98C89.7324 380.15 89.5193 380.381 89.3773 380.672C89.2352 380.963 89.1642 381.29 89.1642 381.652C89.1642 382.014 89.2317 382.341 89.3666 382.632C89.5086 382.916 89.7181 383.144 89.9951 383.314C90.2792 383.477 90.6272 383.559 91.0391 383.559C91.4439 383.559 91.7954 383.481 92.0937 383.325C92.3991 383.169 92.6335 382.948 92.7968 382.664C92.9673 382.373 93.0525 382.032 93.0525 381.642C93.0525 381.308 92.9815 380.995 92.8394 380.704C92.6974 380.413 92.4808 380.179 92.1896 380.001C91.8984 379.816 91.5327 379.724 91.0924 379.724Z" fill="#1C242E"/>
<path d="M75.5621 403V395.223H76.3717V403H75.5621ZM70.2144 403V395.223H71.024V403H70.2144ZM70.8429 399.506V398.781H75.7432V399.506H70.8429ZM78.797 403V395.223H79.6066V403H78.797ZM79.4149 403V402.265H83.3031V403H79.4149ZM79.4149 399.41V398.686H82.9409V399.41H79.4149ZM79.4149 395.958V395.223H83.186V395.958H79.4149ZM84.2037 403L87.1545 398.845V399.048L84.4807 395.223H85.3968L87.5913 398.398H87.7404L89.9669 395.223H90.8511L88.092 399.101V398.899L91.0322 403H90.116L87.6659 399.559H87.5167L85.0772 403H84.2037ZM92.1674 403V401.945H93.1688V403H92.1674ZM92.1674 398.984V397.929H93.1688V398.984H92.1674ZM99.861 403.181C99.2715 403.181 98.778 403.064 98.3803 402.83C97.9826 402.588 97.6807 402.272 97.4748 401.881C97.2688 401.491 97.1658 401.072 97.1658 400.624H97.9435C97.9435 400.98 98.0181 401.296 98.1672 401.573C98.3234 401.849 98.5436 402.07 98.8277 402.233C99.1118 402.396 99.4562 402.478 99.861 402.478C100.266 402.478 100.61 402.4 100.894 402.244C101.178 402.08 101.395 401.86 101.544 401.583C101.7 401.299 101.779 400.98 101.779 400.624C101.779 400.276 101.704 399.96 101.555 399.676C101.406 399.392 101.185 399.169 100.894 399.005C100.61 398.835 100.266 398.75 99.861 398.75C99.5769 398.75 99.2964 398.799 99.0194 398.899C98.7425 398.991 98.5116 399.129 98.327 399.314H97.592L97.9968 395.223H101.864V395.916H98.4335L98.6572 395.639L98.3376 398.835L98.0926 398.781C98.3128 398.561 98.572 398.387 98.8703 398.26C99.1686 398.132 99.5095 398.068 99.893 398.068C100.475 398.068 100.965 398.188 101.363 398.43C101.761 398.671 102.059 398.984 102.258 399.367C102.464 399.744 102.567 400.141 102.567 400.561V400.699C102.567 401.118 102.464 401.519 102.258 401.903C102.052 402.279 101.747 402.588 101.342 402.83C100.944 403.064 100.45 403.181 99.861 403.181ZM106.777 403.202C106.258 403.202 105.818 403.114 105.456 402.936C105.094 402.751 104.799 402.496 104.572 402.169C104.351 401.842 104.188 401.455 104.082 401.008C103.975 400.553 103.922 400.06 103.922 399.527V399.08C103.922 397.816 104.216 396.85 104.806 396.182C105.395 395.508 106.276 395.17 107.448 395.17C107.689 395.17 107.906 395.177 108.098 395.191C108.289 395.206 108.495 395.227 108.715 395.255V395.948C108.495 395.912 108.282 395.887 108.076 395.873C107.87 395.859 107.647 395.852 107.405 395.852C106.738 395.852 106.201 395.983 105.797 396.246C105.392 396.502 105.097 396.875 104.912 397.365C104.735 397.855 104.646 398.448 104.646 399.144V399.9L104.433 400.529C104.44 399.989 104.543 399.531 104.742 399.154C104.948 398.778 105.236 398.49 105.605 398.291C105.974 398.093 106.407 397.993 106.904 397.993C107.458 397.993 107.927 398.107 108.311 398.334C108.694 398.561 108.982 398.87 109.174 399.261C109.372 399.651 109.472 400.088 109.472 400.571C109.472 401.061 109.369 401.505 109.163 401.903C108.964 402.3 108.666 402.616 108.268 402.851C107.87 403.085 107.373 403.202 106.777 403.202ZM106.777 402.499C107.203 402.499 107.558 402.414 107.842 402.244C108.133 402.073 108.35 401.842 108.492 401.551C108.634 401.26 108.705 400.933 108.705 400.571C108.705 400.209 108.634 399.886 108.492 399.602C108.357 399.311 108.147 399.083 107.863 398.92C107.586 398.75 107.242 398.664 106.83 398.664C106.425 398.664 106.07 398.742 105.765 398.899C105.466 399.055 105.232 399.279 105.062 399.57C104.898 399.854 104.817 400.191 104.817 400.582C104.817 400.916 104.888 401.228 105.03 401.519C105.172 401.81 105.388 402.048 105.679 402.233C105.971 402.411 106.336 402.499 106.777 402.499ZM111.883 403.043V402.297H114.002C114.528 402.297 114.986 402.212 115.377 402.041C115.774 401.871 116.108 401.64 116.378 401.349C116.648 401.051 116.85 400.71 116.985 400.326C117.12 399.943 117.188 399.534 117.188 399.101C117.188 398.654 117.117 398.238 116.975 397.855C116.84 397.471 116.637 397.134 116.367 396.843C116.097 396.552 115.764 396.328 115.366 396.172C114.975 396.015 114.521 395.937 114.002 395.937H111.883V395.191H113.917C114.613 395.191 115.217 395.298 115.728 395.511C116.24 395.724 116.666 396.015 117.007 396.385C117.347 396.747 117.6 397.155 117.763 397.61C117.926 398.064 118.008 398.526 118.008 398.995V399.197C118.008 399.659 117.926 400.117 117.763 400.571C117.6 401.026 117.351 401.441 117.017 401.818C116.683 402.187 116.257 402.485 115.739 402.712C115.227 402.933 114.62 403.043 113.917 403.043H111.883ZM111.286 403.043V395.191H112.096V403.043H111.286ZM121.874 403.181C121.285 403.181 120.791 403.064 120.393 402.83C119.996 402.588 119.694 402.272 119.488 401.881C119.282 401.491 119.179 401.072 119.179 400.624H119.957C119.957 400.98 120.031 401.296 120.18 401.573C120.336 401.849 120.557 402.07 120.841 402.233C121.125 402.396 121.469 402.478 121.874 402.478C122.279 402.478 122.623 402.4 122.907 402.244C123.191 402.08 123.408 401.86 123.557 401.583C123.713 401.299 123.792 400.98 123.792 400.624C123.792 400.276 123.717 399.96 123.568 399.676C123.419 399.392 123.199 399.169 122.907 399.005C122.623 398.835 122.279 398.75 121.874 398.75C121.59 398.75 121.309 398.799 121.032 398.899C120.755 398.991 120.525 399.129 120.34 399.314H119.605L120.01 395.223H123.877V395.916H120.447L120.67 395.639L120.351 398.835L120.106 398.781C120.326 398.561 120.585 398.387 120.883 398.26C121.182 398.132 121.522 398.068 121.906 398.068C122.488 398.068 122.978 398.188 123.376 398.43C123.774 398.671 124.072 398.984 124.271 399.367C124.477 399.744 124.58 400.141 124.58 400.561V400.699C124.58 401.118 124.477 401.519 124.271 401.903C124.065 402.279 123.76 402.588 123.355 402.83C122.957 403.064 122.463 403.181 121.874 403.181ZM125.658 401.061V400.06L128.96 395.074L129.514 395.511L126.382 400.262L126.467 400.422H131.538V401.061H125.658ZM129.727 403V397.524H130.473V403H129.727ZM133.049 403V395.223H133.859V403H133.049ZM133.646 399.41V398.675L137.087 398.664V399.399L133.646 399.41ZM133.646 395.948V395.223H137.289V395.948H133.646Z" fill="#1C242E"/>
<path d="M1292.21 355V347.191H1293.02V355H1292.21ZM1297.04 355L1294.39 351.559H1295.34L1298.03 355H1297.04ZM1292.69 352.049V351.325H1294.78C1295.17 351.325 1295.48 351.25 1295.74 351.101C1296 350.952 1296.19 350.75 1296.32 350.494C1296.44 350.238 1296.51 349.947 1296.51 349.62C1296.51 349.294 1296.44 349.002 1296.32 348.747C1296.19 348.491 1296 348.289 1295.74 348.14C1295.48 347.983 1295.17 347.905 1294.78 347.905H1292.69V347.191H1294.64C1295.22 347.191 1295.7 347.284 1296.1 347.468C1296.51 347.646 1296.81 347.912 1297.02 348.267C1297.23 348.615 1297.34 349.042 1297.34 349.546V349.695C1297.34 350.199 1297.23 350.629 1297.02 350.984C1296.81 351.332 1296.5 351.598 1296.1 351.783C1295.7 351.96 1295.22 352.049 1294.64 352.049H1292.69ZM1299.19 355V353.945H1300.19V355H1299.19ZM1299.19 350.984V349.929H1300.19V350.984H1299.19ZM1304.41 355V353.818C1304.41 353.512 1304.45 353.253 1304.54 353.04C1304.62 352.827 1304.77 352.632 1304.98 352.454C1305.2 352.276 1305.49 352.106 1305.86 351.943L1307.38 351.229C1307.75 351.058 1308.05 350.835 1308.27 350.558C1308.49 350.281 1308.6 349.919 1308.6 349.471C1308.6 348.924 1308.44 348.498 1308.13 348.193C1307.82 347.88 1307.4 347.724 1306.86 347.724C1306.33 347.724 1305.9 347.88 1305.58 348.193C1305.27 348.498 1305.11 348.924 1305.11 349.471H1304.33C1304.33 349.01 1304.43 348.594 1304.62 348.225C1304.81 347.856 1305.1 347.564 1305.47 347.351C1305.85 347.131 1306.31 347.021 1306.86 347.021C1307.41 347.021 1307.87 347.131 1308.24 347.351C1308.61 347.564 1308.89 347.852 1309.09 348.214C1309.28 348.569 1309.37 348.963 1309.37 349.397V349.546C1309.37 350.1 1309.21 350.565 1308.89 350.941C1308.58 351.311 1308.17 351.616 1307.66 351.857L1306.12 352.571C1305.76 352.735 1305.52 352.905 1305.39 353.082C1305.27 353.253 1305.21 353.473 1305.21 353.743V354.691L1304.97 354.308H1309.5V355H1304.41ZM1313.43 355.181C1312.88 355.181 1312.39 355.082 1311.98 354.883C1311.56 354.677 1311.23 354.4 1311 354.052C1310.77 353.704 1310.65 353.306 1310.65 352.859C1310.65 352.525 1310.72 352.227 1310.86 351.964C1311 351.694 1311.18 351.47 1311.41 351.293C1311.64 351.108 1311.89 350.973 1312.16 350.888V350.781C1311.94 350.696 1311.73 350.579 1311.55 350.43C1311.36 350.274 1311.21 350.086 1311.09 349.865C1310.98 349.645 1310.92 349.386 1310.92 349.088C1310.92 348.662 1311.03 348.296 1311.25 347.99C1311.48 347.685 1311.78 347.451 1312.16 347.287C1312.54 347.117 1312.97 347.032 1313.43 347.032C1313.92 347.032 1314.35 347.117 1314.72 347.287C1315.1 347.451 1315.4 347.685 1315.62 347.99C1315.84 348.296 1315.95 348.662 1315.95 349.088C1315.95 349.386 1315.89 349.645 1315.78 349.865C1315.67 350.086 1315.52 350.274 1315.33 350.43C1315.15 350.579 1314.94 350.696 1314.72 350.781V350.888C1315 350.973 1315.25 351.108 1315.48 351.293C1315.71 351.477 1315.89 351.701 1316.02 351.964C1316.16 352.227 1316.23 352.525 1316.23 352.859C1316.23 353.306 1316.11 353.704 1315.87 354.052C1315.65 354.4 1315.32 354.677 1314.9 354.883C1314.49 355.082 1314 355.181 1313.43 355.181ZM1313.43 354.499C1313.86 354.499 1314.22 354.428 1314.52 354.286C1314.82 354.144 1315.05 353.949 1315.2 353.7C1315.37 353.445 1315.45 353.154 1315.45 352.827C1315.45 352.5 1315.37 352.213 1315.21 351.964C1315.06 351.715 1314.83 351.52 1314.53 351.378C1314.23 351.236 1313.87 351.165 1313.43 351.165C1313.02 351.165 1312.66 351.236 1312.36 351.378C1312.06 351.52 1311.83 351.715 1311.68 351.964C1311.52 352.213 1311.44 352.5 1311.44 352.827C1311.44 353.154 1311.52 353.445 1311.68 353.7C1311.83 353.949 1312.06 354.144 1312.36 354.286C1312.66 354.428 1313.02 354.499 1313.43 354.499ZM1313.43 350.526C1313.96 350.526 1314.38 350.409 1314.69 350.174C1315.01 349.933 1315.17 349.581 1315.17 349.12C1315.17 348.658 1315.01 348.31 1314.69 348.076C1314.38 347.841 1313.96 347.724 1313.43 347.724C1312.92 347.724 1312.5 347.841 1312.18 348.076C1311.87 348.31 1311.71 348.658 1311.71 349.12C1311.71 349.581 1311.87 349.933 1312.19 350.174C1312.51 350.409 1312.92 350.526 1313.43 350.526Z" fill="#FDFDFD"/>
<path d="M1295.61 371.181C1294.97 371.181 1294.41 371.075 1293.91 370.862C1293.42 370.648 1293.01 370.357 1292.67 369.988C1292.34 369.612 1292.08 369.182 1291.91 368.699C1291.74 368.209 1291.65 367.694 1291.65 367.154V366.963C1291.65 366.465 1291.73 365.983 1291.89 365.514C1292.07 365.045 1292.31 364.623 1292.63 364.246C1292.95 363.87 1293.35 363.571 1293.82 363.351C1294.3 363.131 1294.84 363.021 1295.44 363.021C1296.07 363.021 1296.64 363.142 1297.13 363.383C1297.62 363.618 1298.01 363.948 1298.31 364.374C1298.61 364.8 1298.79 365.294 1298.84 365.855H1298.02C1297.96 365.4 1297.81 365.017 1297.56 364.704C1297.32 364.392 1297.02 364.157 1296.65 364.001C1296.28 363.845 1295.88 363.767 1295.44 363.767C1294.99 363.767 1294.58 363.848 1294.21 364.012C1293.84 364.175 1293.52 364.406 1293.27 364.704C1293.01 365.002 1292.81 365.354 1292.67 365.759C1292.54 366.157 1292.47 366.593 1292.47 367.069C1292.47 367.573 1292.54 368.035 1292.68 368.454C1292.83 368.866 1293.03 369.221 1293.3 369.519C1293.57 369.818 1293.9 370.048 1294.28 370.212C1294.67 370.375 1295.12 370.457 1295.61 370.457C1296.22 370.457 1296.76 370.34 1297.22 370.105C1297.69 369.864 1298.05 369.548 1298.31 369.157L1297.99 370.158V367.857H1298.76V369.796C1298.42 370.229 1297.99 370.57 1297.46 370.819C1296.92 371.06 1296.31 371.181 1295.61 371.181ZM1295.33 368.028V367.346H1299.45V368.028H1295.33ZM1300.73 371V369.945H1301.73V371H1300.73ZM1300.73 366.984V365.929H1301.73V366.984H1300.73ZM1308.25 371.181C1307.68 371.181 1307.2 371.071 1306.8 370.851C1306.41 370.631 1306.11 370.332 1305.91 369.956C1305.7 369.58 1305.6 369.168 1305.6 368.72H1306.37C1306.37 369.26 1306.54 369.69 1306.88 370.009C1307.21 370.322 1307.67 370.478 1308.25 370.478C1308.63 370.478 1308.95 370.407 1309.23 370.265C1309.51 370.123 1309.73 369.921 1309.88 369.658C1310.04 369.395 1310.11 369.09 1310.11 368.742C1310.11 368.209 1309.95 367.779 1309.61 367.453C1309.28 367.126 1308.83 366.963 1308.26 366.963C1308.03 366.963 1307.84 366.991 1307.67 367.048C1307.51 367.098 1307.37 367.161 1307.24 367.24L1306.8 366.494L1309.9 364.086L1309.82 363.916H1305.91V363.223H1310.56V364.374L1307.81 366.515L1307.29 366.526C1307.42 366.469 1307.56 366.423 1307.73 366.387C1307.89 366.345 1308.08 366.323 1308.29 366.323C1308.84 366.323 1309.3 366.43 1309.69 366.643C1310.08 366.856 1310.38 367.14 1310.58 367.495C1310.79 367.85 1310.89 368.241 1310.89 368.667V368.816C1310.89 369.228 1310.79 369.615 1310.58 369.977C1310.38 370.34 1310.08 370.631 1309.69 370.851C1309.3 371.071 1308.82 371.181 1308.25 371.181ZM1315.25 371.202C1314.73 371.202 1314.29 371.114 1313.93 370.936C1313.57 370.751 1313.27 370.496 1313.05 370.169C1312.83 369.842 1312.66 369.455 1312.56 369.008C1312.45 368.553 1312.4 368.06 1312.4 367.527V367.08C1312.4 365.816 1312.69 364.85 1313.28 364.182C1313.87 363.508 1314.75 363.17 1315.92 363.17C1316.17 363.17 1316.38 363.177 1316.57 363.191C1316.77 363.206 1316.97 363.227 1317.19 363.255V363.948C1316.97 363.912 1316.76 363.887 1316.55 363.873C1316.35 363.859 1316.12 363.852 1315.88 363.852C1315.21 363.852 1314.68 363.983 1314.27 364.246C1313.87 364.502 1313.57 364.875 1313.39 365.365C1313.21 365.855 1313.12 366.448 1313.12 367.144V367.9L1312.91 368.529C1312.92 367.989 1313.02 367.531 1313.22 367.154C1313.42 366.778 1313.71 366.49 1314.08 366.291C1314.45 366.093 1314.88 365.993 1315.38 365.993C1315.93 365.993 1316.4 366.107 1316.79 366.334C1317.17 366.561 1317.46 366.87 1317.65 367.261C1317.85 367.651 1317.95 368.088 1317.95 368.571C1317.95 369.061 1317.84 369.505 1317.64 369.903C1317.44 370.3 1317.14 370.616 1316.74 370.851C1316.35 371.085 1315.85 371.202 1315.25 371.202ZM1315.25 370.499C1315.68 370.499 1316.03 370.414 1316.32 370.244C1316.61 370.073 1316.83 369.842 1316.97 369.551C1317.11 369.26 1317.18 368.933 1317.18 368.571C1317.18 368.209 1317.11 367.886 1316.97 367.602C1316.83 367.311 1316.62 367.083 1316.34 366.92C1316.06 366.75 1315.72 366.664 1315.31 366.664C1314.9 366.664 1314.55 366.742 1314.24 366.899C1313.94 367.055 1313.71 367.279 1313.54 367.57C1313.37 367.854 1313.29 368.191 1313.29 368.582C1313.29 368.916 1313.36 369.228 1313.51 369.519C1313.65 369.81 1313.86 370.048 1314.16 370.233C1314.45 370.411 1314.81 370.499 1315.25 370.499Z" fill="#FDFDFD"/>
<path d="M1292.82 387.032V386.318H1295.1C1295.56 386.318 1295.92 386.187 1296.18 385.924C1296.44 385.654 1296.57 385.299 1296.57 384.859C1296.57 384.426 1296.44 384.078 1296.19 383.815C1295.93 383.545 1295.57 383.41 1295.1 383.41H1292.82V382.877H1294.98C1295.45 382.877 1295.87 382.945 1296.23 383.08C1296.59 383.208 1296.88 383.414 1297.08 383.698C1297.29 383.982 1297.39 384.355 1297.39 384.816V384.944C1297.39 385.363 1297.3 385.732 1297.13 386.052C1296.95 386.364 1296.68 386.606 1296.33 386.776C1295.97 386.947 1295.52 387.032 1294.98 387.032H1292.82ZM1292.21 387.032V379.191H1293.02V387.032H1292.21ZM1292.82 383.261V382.728H1294.81C1295.3 382.728 1295.67 382.597 1295.9 382.334C1296.13 382.064 1296.25 381.727 1296.25 381.322C1296.25 380.903 1296.13 380.562 1295.9 380.299C1295.67 380.037 1295.3 379.905 1294.81 379.905H1292.82V379.191H1294.68C1295.48 379.191 1296.08 379.373 1296.48 379.735C1296.87 380.097 1297.07 380.598 1297.07 381.237V381.365C1297.07 381.812 1296.97 382.178 1296.77 382.462C1296.57 382.739 1296.29 382.941 1295.93 383.069C1295.58 383.197 1295.16 383.261 1294.68 383.261H1292.82ZM1299.04 387V385.945H1300.04V387H1299.04ZM1299.04 382.984V381.929H1300.04V382.984H1299.04ZM1303.94 385.061V384.06L1307.25 379.074L1307.8 379.511L1304.67 384.262L1304.75 384.422H1309.82V385.061H1303.94ZM1308.01 387V381.524H1308.76V387H1308.01ZM1313.8 387.202C1313.28 387.202 1312.84 387.114 1312.48 386.936C1312.11 386.751 1311.82 386.496 1311.59 386.169C1311.37 385.842 1311.21 385.455 1311.1 385.008C1310.99 384.553 1310.94 384.06 1310.94 383.527V383.08C1310.94 381.816 1311.24 380.85 1311.83 380.182C1312.41 379.508 1313.3 379.17 1314.47 379.17C1314.71 379.17 1314.93 379.177 1315.12 379.191C1315.31 379.206 1315.51 379.227 1315.73 379.255V379.948C1315.51 379.912 1315.3 379.887 1315.1 379.873C1314.89 379.859 1314.67 379.852 1314.42 379.852C1313.76 379.852 1313.22 379.983 1312.82 380.246C1312.41 380.502 1312.12 380.875 1311.93 381.365C1311.75 381.855 1311.67 382.448 1311.67 383.144V383.9L1311.45 384.529C1311.46 383.989 1311.56 383.531 1311.76 383.154C1311.97 382.778 1312.26 382.49 1312.62 382.291C1312.99 382.093 1313.43 381.993 1313.92 381.993C1314.48 381.993 1314.95 382.107 1315.33 382.334C1315.71 382.561 1316 382.87 1316.19 383.261C1316.39 383.651 1316.49 384.088 1316.49 384.571C1316.49 385.061 1316.39 385.505 1316.18 385.903C1315.98 386.3 1315.69 386.616 1315.29 386.851C1314.89 387.085 1314.39 387.202 1313.8 387.202ZM1313.8 386.499C1314.22 386.499 1314.58 386.414 1314.86 386.244C1315.15 386.073 1315.37 385.842 1315.51 385.551C1315.65 385.26 1315.72 384.933 1315.72 384.571C1315.72 384.209 1315.65 383.886 1315.51 383.602C1315.38 383.311 1315.17 383.083 1314.88 382.92C1314.61 382.75 1314.26 382.664 1313.85 382.664C1313.44 382.664 1313.09 382.742 1312.78 382.899C1312.49 383.055 1312.25 383.279 1312.08 383.57C1311.92 383.854 1311.84 384.191 1311.84 384.582C1311.84 384.916 1311.91 385.228 1312.05 385.519C1312.19 385.81 1312.41 386.048 1312.7 386.233C1312.99 386.411 1313.36 386.499 1313.8 386.499Z" fill="#FDFDFD"/>
<path d="M1297.56 403V395.223H1298.37V403H1297.56ZM1292.21 403V395.223H1293.02V403H1292.21ZM1292.84 399.506V398.781H1297.74V399.506H1292.84ZM1300.8 403V395.223H1301.61V403H1300.8ZM1301.41 403V402.265H1305.3V403H1301.41ZM1301.41 399.41V398.686H1304.94V399.41H1301.41ZM1301.41 395.958V395.223H1305.19V395.958H1301.41ZM1306.2 403L1309.15 398.845V399.048L1306.48 395.223H1307.4L1309.59 398.398H1309.74L1311.97 395.223H1312.85L1310.09 399.101V398.899L1313.03 403H1312.12L1309.67 399.559H1309.52L1307.08 403H1306.2ZM1314.17 403V401.945H1315.17V403H1314.17ZM1314.17 398.984V397.929H1315.17V398.984H1314.17ZM1320.79 403V395.639L1321.14 395.916H1319.02V395.223H1321.58V403H1320.79ZM1327.49 403.181C1326.79 403.181 1326.19 403.06 1325.7 402.819C1325.21 402.57 1324.8 402.247 1324.49 401.849C1324.19 401.452 1323.96 401.022 1323.82 400.561C1323.68 400.092 1323.61 399.637 1323.61 399.197V398.995C1323.61 398.519 1323.68 398.046 1323.82 397.578C1323.97 397.102 1324.2 396.672 1324.5 396.289C1324.82 395.905 1325.21 395.6 1325.7 395.373C1326.18 395.138 1326.75 395.021 1327.41 395.021C1328.08 395.021 1328.65 395.138 1329.14 395.373C1329.63 395.607 1330.02 395.937 1330.31 396.363C1330.6 396.782 1330.78 397.279 1330.84 397.855H1330.02C1329.96 397.393 1329.82 397.01 1329.57 396.704C1329.33 396.392 1329.02 396.157 1328.65 396.001C1328.28 395.845 1327.87 395.767 1327.41 395.767C1326.92 395.767 1326.49 395.856 1326.11 396.033C1325.74 396.204 1325.43 396.445 1325.18 396.757C1324.94 397.063 1324.75 397.418 1324.62 397.823C1324.49 398.22 1324.43 398.647 1324.43 399.101C1324.43 399.534 1324.49 399.95 1324.61 400.347C1324.74 400.745 1324.93 401.104 1325.18 401.423C1325.44 401.736 1325.76 401.984 1326.14 402.169C1326.53 402.347 1326.97 402.435 1327.49 402.435C1328.2 402.435 1328.79 402.258 1329.28 401.903C1329.76 401.541 1330.06 401.022 1330.17 400.347H1330.99C1330.91 400.88 1330.73 401.363 1330.44 401.796C1330.15 402.222 1329.75 402.56 1329.25 402.808C1328.76 403.057 1328.17 403.181 1327.49 403.181ZM1332.28 403V401.818C1332.28 401.512 1332.32 401.253 1332.41 401.04C1332.49 400.827 1332.64 400.632 1332.85 400.454C1333.07 400.276 1333.36 400.106 1333.73 399.943L1335.25 399.229C1335.62 399.058 1335.92 398.835 1336.14 398.558C1336.36 398.281 1336.47 397.919 1336.47 397.471C1336.47 396.924 1336.31 396.498 1336 396.193C1335.69 395.88 1335.27 395.724 1334.73 395.724C1334.2 395.724 1333.77 395.88 1333.45 396.193C1333.14 396.498 1332.98 396.924 1332.98 397.471H1332.2C1332.2 397.01 1332.3 396.594 1332.49 396.225C1332.68 395.856 1332.97 395.564 1333.34 395.351C1333.72 395.131 1334.18 395.021 1334.73 395.021C1335.28 395.021 1335.74 395.131 1336.11 395.351C1336.48 395.564 1336.76 395.852 1336.96 396.214C1337.15 396.569 1337.24 396.963 1337.24 397.397V397.546C1337.24 398.1 1337.08 398.565 1336.76 398.941C1336.45 399.311 1336.04 399.616 1335.53 399.857L1333.99 400.571C1333.63 400.735 1333.39 400.905 1333.26 401.082C1333.14 401.253 1333.08 401.473 1333.08 401.743V402.691L1332.84 402.308H1337.37V403H1332.28ZM1338.5 401.061V400.06L1341.81 395.074L1342.36 395.511L1339.23 400.262L1339.31 400.422H1344.38V401.061H1338.5ZM1342.57 403V397.524H1343.32V403H1342.57ZM1345.54 403V401.818C1345.54 401.512 1345.59 401.253 1345.67 401.04C1345.76 400.827 1345.91 400.632 1346.12 400.454C1346.33 400.276 1346.62 400.106 1346.99 399.943L1348.52 399.229C1348.88 399.058 1349.18 398.835 1349.4 398.558C1349.62 398.281 1349.73 397.919 1349.73 397.471C1349.73 396.924 1349.57 396.498 1349.26 396.193C1348.96 395.88 1348.53 395.724 1347.99 395.724C1347.46 395.724 1347.03 395.88 1346.71 396.193C1346.4 396.498 1346.25 396.924 1346.25 397.471H1345.47C1345.47 397.01 1345.56 396.594 1345.76 396.225C1345.95 395.856 1346.23 395.564 1346.61 395.351C1346.98 395.131 1347.45 395.021 1347.99 395.021C1348.55 395.021 1349.01 395.131 1349.38 395.351C1349.75 395.564 1350.03 395.852 1350.22 396.214C1350.41 396.569 1350.51 396.963 1350.51 397.397V397.546C1350.51 398.1 1350.35 398.565 1350.03 398.941C1349.72 399.311 1349.3 399.616 1348.79 399.857L1347.26 400.571C1346.9 400.735 1346.65 400.905 1346.52 401.082C1346.4 401.253 1346.34 401.473 1346.34 401.743V402.691L1346.11 402.308H1350.64V403H1345.54ZM1352.44 403V395.223H1353.25V403H1352.44ZM1353.06 403V402.265H1356.94V403H1353.06ZM1353.06 399.41V398.686H1356.58V399.41H1353.06ZM1353.06 395.958V395.223H1356.83V395.958H1353.06Z" fill="#FDFDFD"/>
<path d="M1291.92 802.99H1295.43C1295.95 802.99 1296.37 803.136 1296.68 803.427C1296.99 803.711 1297.15 804.091 1297.15 804.567V805.398C1297.15 805.774 1297.03 806.108 1296.78 806.399C1296.54 806.683 1296.22 806.879 1295.82 806.985V806.996C1296.03 807.102 1296.22 807.276 1296.39 807.518C1296.56 807.759 1296.69 808.043 1296.78 808.37L1297.38 810.447H1296.78L1296.19 808.37C1296.07 807.994 1295.89 807.695 1295.64 807.475C1295.4 807.255 1295.13 807.145 1294.81 807.145H1292.5V810.447H1291.92V802.99ZM1295.17 806.623C1295.58 806.623 1295.92 806.513 1296.18 806.293C1296.43 806.065 1296.56 805.767 1296.56 805.398V804.546C1296.56 804.233 1296.46 803.985 1296.25 803.8C1296.05 803.608 1295.77 803.512 1295.42 803.512H1292.5V806.623H1295.17ZM1298.99 806.463C1298.84 806.463 1298.73 806.421 1298.63 806.335C1298.55 806.243 1298.51 806.126 1298.51 805.984C1298.51 805.842 1298.55 805.728 1298.63 805.643C1298.73 805.551 1298.84 805.504 1298.99 805.504C1299.13 805.504 1299.24 805.551 1299.33 805.643C1299.42 805.728 1299.46 805.842 1299.46 805.984C1299.46 806.126 1299.42 806.243 1299.33 806.335C1299.24 806.421 1299.13 806.463 1298.99 806.463ZM1298.99 810.096C1298.84 810.096 1298.73 810.053 1298.63 809.968C1298.55 809.876 1298.51 809.758 1298.51 809.616C1298.51 809.474 1298.55 809.361 1298.63 809.275C1298.73 809.183 1298.84 809.137 1298.99 809.137C1299.13 809.137 1299.24 809.183 1299.33 809.275C1299.42 809.361 1299.46 809.474 1299.46 809.616C1299.46 809.758 1299.42 809.876 1299.33 809.968C1299.24 810.053 1299.13 810.096 1298.99 810.096ZM1303.45 809.947C1303.45 809.513 1303.51 809.155 1303.64 808.871C1303.77 808.587 1303.99 808.32 1304.3 808.072L1306.93 805.941C1307.33 805.622 1307.53 805.259 1307.53 804.855V804.514C1307.53 804.187 1307.41 803.924 1307.19 803.725C1306.97 803.526 1306.67 803.427 1306.3 803.427H1305.31C1304.91 803.427 1304.59 803.566 1304.34 803.843C1304.1 804.112 1303.98 804.475 1303.98 804.929H1303.39C1303.39 804.318 1303.57 803.828 1303.92 803.459C1304.27 803.09 1304.73 802.905 1305.3 802.905H1306.3C1306.85 802.905 1307.29 803.054 1307.61 803.353C1307.95 803.644 1308.11 804.031 1308.11 804.514V804.855C1308.11 805.416 1307.84 805.913 1307.3 806.346L1304.76 808.381C1304.48 808.601 1304.29 808.821 1304.18 809.041C1304.08 809.261 1304.03 809.552 1304.03 809.915H1308.22V810.447H1303.45V809.947ZM1311.24 810.532C1310.67 810.532 1310.2 810.362 1309.85 810.021C1309.5 809.673 1309.32 809.219 1309.32 808.658H1309.9C1309.9 809.062 1310.02 809.389 1310.27 809.638C1310.52 809.879 1310.84 810 1311.24 810H1312.27C1312.71 810 1313.06 809.868 1313.33 809.606C1313.6 809.336 1313.74 808.981 1313.74 808.54V807.859C1313.74 807.447 1313.6 807.116 1313.32 806.868C1313.05 806.619 1312.69 806.495 1312.23 806.495H1309.6V802.99H1314.04V803.512H1310.19V805.962H1312.23C1312.86 805.962 1313.36 806.136 1313.75 806.484C1314.13 806.832 1314.32 807.29 1314.32 807.859V808.54C1314.32 809.137 1314.13 809.62 1313.76 809.989C1313.38 810.351 1312.88 810.532 1312.27 810.532H1311.24ZM1317.54 810.532C1316.96 810.532 1316.5 810.362 1316.14 810.021C1315.79 809.673 1315.62 809.219 1315.62 808.658H1316.19C1316.19 809.062 1316.32 809.389 1316.57 809.638C1316.82 809.879 1317.14 810 1317.54 810H1318.56C1319 810 1319.35 809.868 1319.62 809.606C1319.89 809.336 1320.03 808.981 1320.03 808.54V807.859C1320.03 807.447 1319.89 807.116 1319.61 806.868C1319.34 806.619 1318.98 806.495 1318.53 806.495H1315.9V802.99H1320.34V803.512H1316.48V805.962H1318.53C1319.15 805.962 1319.66 806.136 1320.04 806.484C1320.42 806.832 1320.62 807.29 1320.62 807.859V808.54C1320.62 809.137 1320.43 809.62 1320.05 809.989C1319.67 810.351 1319.18 810.532 1318.56 810.532H1317.54Z" fill="white"/>
<path d="M1294.05 827.793C1293.58 827.793 1293.17 827.683 1292.81 827.463C1292.46 827.242 1292.19 826.933 1291.99 826.536C1291.8 826.131 1291.7 825.666 1291.7 825.14V822.807C1291.7 822.282 1291.8 821.82 1292 821.422C1292.2 821.025 1292.48 820.716 1292.84 820.496C1293.21 820.275 1293.62 820.165 1294.09 820.165H1295.22C1295.67 820.165 1296.07 820.261 1296.41 820.453C1296.76 820.645 1297.03 820.915 1297.21 821.263C1297.4 821.603 1297.5 821.998 1297.5 822.445H1296.93C1296.93 821.919 1296.78 821.497 1296.46 821.177C1296.15 820.851 1295.74 820.687 1295.22 820.687H1294.09C1293.55 820.687 1293.11 820.883 1292.78 821.273C1292.45 821.664 1292.29 822.175 1292.29 822.807V825.14C1292.29 825.779 1292.45 826.294 1292.77 826.685C1293.1 827.068 1293.52 827.26 1294.05 827.26H1295.2C1295.73 827.26 1296.16 827.083 1296.49 826.727C1296.82 826.365 1296.99 825.893 1296.99 825.311V824.458H1294.87V823.936H1297.55V825.311C1297.55 825.801 1297.45 826.234 1297.25 826.61C1297.06 826.987 1296.79 827.278 1296.43 827.484C1296.08 827.69 1295.67 827.793 1295.2 827.793H1294.05ZM1299.35 823.723C1299.21 823.723 1299.09 823.681 1299 823.596C1298.91 823.503 1298.87 823.386 1298.87 823.244C1298.87 823.102 1298.91 822.988 1299 822.903C1299.09 822.811 1299.21 822.765 1299.35 822.765C1299.49 822.765 1299.6 822.811 1299.69 822.903C1299.78 822.988 1299.83 823.102 1299.83 823.244C1299.83 823.386 1299.78 823.503 1299.69 823.596C1299.6 823.681 1299.49 823.723 1299.35 823.723ZM1299.35 827.356C1299.21 827.356 1299.09 827.313 1299 827.228C1298.91 827.136 1298.87 827.019 1298.87 826.877C1298.87 826.735 1298.91 826.621 1299 826.536C1299.09 826.443 1299.21 826.397 1299.35 826.397C1299.49 826.397 1299.6 826.443 1299.69 826.536C1299.78 826.621 1299.83 826.735 1299.83 826.877C1299.83 827.019 1299.78 827.136 1299.69 827.228C1299.6 827.313 1299.49 827.356 1299.35 827.356ZM1305.76 827.793C1305.18 827.793 1304.72 827.622 1304.36 827.281C1304.02 826.933 1303.84 826.479 1303.84 825.918H1304.42C1304.42 826.323 1304.54 826.649 1304.79 826.898C1305.04 827.139 1305.36 827.26 1305.76 827.26H1306.78C1307.22 827.26 1307.58 827.129 1307.85 826.866C1308.12 826.596 1308.25 826.241 1308.25 825.801V825.119C1308.25 824.707 1308.11 824.377 1307.84 824.128C1307.57 823.88 1307.21 823.755 1306.75 823.755H1304.12V820.251H1308.56V820.773H1304.71V823.223H1306.75C1307.38 823.223 1307.88 823.397 1308.26 823.745C1308.65 824.093 1308.84 824.551 1308.84 825.119V825.801C1308.84 826.397 1308.65 826.88 1308.27 827.249C1307.9 827.612 1307.4 827.793 1306.78 827.793H1305.76ZM1312.32 827.793C1311.92 827.793 1311.55 827.697 1311.23 827.505C1310.92 827.313 1310.68 827.047 1310.5 826.706C1310.33 826.358 1310.24 825.957 1310.24 825.502V822.456C1310.24 822.001 1310.33 821.603 1310.5 821.263C1310.68 820.915 1310.92 820.645 1311.23 820.453C1311.55 820.261 1311.92 820.165 1312.32 820.165H1313.45C1313.86 820.165 1314.22 820.261 1314.54 820.453C1314.85 820.645 1315.09 820.915 1315.26 821.263C1315.43 821.603 1315.52 822.001 1315.52 822.456V825.502C1315.52 825.957 1315.43 826.358 1315.26 826.706C1315.09 827.047 1314.85 827.313 1314.54 827.505C1314.22 827.697 1313.86 827.793 1313.45 827.793H1312.32ZM1313.43 827.26C1313.88 827.26 1314.24 827.1 1314.51 826.781C1314.79 826.454 1314.93 826.028 1314.93 825.502V822.456C1314.93 821.923 1314.79 821.497 1314.51 821.177C1314.24 820.851 1313.88 820.687 1313.43 820.687H1312.34C1311.89 820.687 1311.52 820.851 1311.24 821.177C1310.97 821.497 1310.83 821.923 1310.83 822.456V825.502C1310.83 826.028 1310.97 826.454 1311.24 826.781C1311.52 827.1 1311.89 827.26 1312.34 827.26H1313.43Z" fill="white"/>
<path d="M1292.46 844.968C1292.3 844.968 1292.16 844.919 1292.07 844.819C1291.97 844.72 1291.92 844.588 1291.92 844.425V837.511H1295.02C1295.61 837.511 1296.08 837.657 1296.43 837.948C1296.8 838.239 1296.98 838.623 1296.98 839.099V839.706C1296.98 839.997 1296.91 840.267 1296.78 840.515C1296.66 840.757 1296.49 840.945 1296.27 841.08V841.091C1296.63 841.176 1296.91 841.353 1297.13 841.623C1297.34 841.886 1297.44 842.195 1297.44 842.55V843.125C1297.44 843.679 1297.26 844.127 1296.9 844.468C1296.54 844.801 1296.06 844.968 1295.45 844.968H1292.46ZM1295.23 840.952C1295.58 840.952 1295.86 840.839 1296.07 840.611C1296.28 840.384 1296.39 840.082 1296.39 839.706V839.099C1296.39 838.786 1296.26 838.53 1296.01 838.332C1295.76 838.133 1295.43 838.033 1295.02 838.033H1292.5V840.952H1295.23ZM1295.4 844.436C1295.84 844.436 1296.19 844.318 1296.45 844.084C1296.72 843.843 1296.86 843.523 1296.86 843.125V842.55C1296.86 842.223 1296.74 841.961 1296.51 841.762C1296.28 841.556 1295.98 841.453 1295.6 841.453H1292.5V844.436H1295.4ZM1299.12 840.984C1298.98 840.984 1298.86 840.942 1298.77 840.856C1298.68 840.764 1298.64 840.647 1298.64 840.505C1298.64 840.363 1298.68 840.249 1298.77 840.164C1298.86 840.072 1298.98 840.025 1299.12 840.025C1299.26 840.025 1299.38 840.072 1299.46 840.164C1299.55 840.249 1299.6 840.363 1299.6 840.505C1299.6 840.647 1299.55 840.764 1299.46 840.856C1299.38 840.942 1299.26 840.984 1299.12 840.984ZM1299.12 844.617C1298.98 844.617 1298.86 844.574 1298.77 844.489C1298.68 844.397 1298.64 844.279 1298.64 844.137C1298.64 843.995 1298.68 843.882 1298.77 843.796C1298.86 843.704 1298.98 843.658 1299.12 843.658C1299.26 843.658 1299.38 843.704 1299.46 843.796C1299.55 843.882 1299.6 843.995 1299.6 844.137C1299.6 844.279 1299.55 844.397 1299.46 844.489C1299.38 844.574 1299.26 844.617 1299.12 844.617ZM1305.12 838.129L1303.4 839.003V838.438L1305.15 837.511H1305.7V844.968H1305.12V838.129ZM1309.26 845.053C1308.68 845.053 1308.22 844.883 1307.86 844.542C1307.51 844.194 1307.34 843.74 1307.34 843.179H1307.91C1307.91 843.583 1308.04 843.91 1308.29 844.159C1308.53 844.4 1308.86 844.521 1309.26 844.521H1310.28C1310.72 844.521 1311.07 844.389 1311.34 844.127C1311.61 843.857 1311.75 843.502 1311.75 843.061V842.38C1311.75 841.968 1311.61 841.637 1311.33 841.389C1311.06 841.14 1310.7 841.016 1310.25 841.016H1307.61V837.511H1312.06V838.033H1308.2V840.483H1310.25C1310.87 840.483 1311.38 840.657 1311.76 841.005C1312.14 841.353 1312.33 841.811 1312.33 842.38V843.061C1312.33 843.658 1312.15 844.141 1311.77 844.51C1311.39 844.872 1310.9 845.053 1310.28 845.053H1309.26ZM1314.71 844.734C1314.71 844.379 1314.74 844.034 1314.79 843.701C1314.86 843.36 1314.95 843.069 1315.06 842.827L1317.19 838.033H1313.25V837.511H1317.86V837.895L1315.68 842.827C1315.56 843.104 1315.46 843.413 1315.39 843.754C1315.33 844.088 1315.29 844.414 1315.29 844.734V844.968H1314.71V844.734Z" fill="white"/>
<path d="M1291.92 852.439H1292.5V855.869H1296.81V852.439H1297.39V859.896H1296.81V856.391H1292.5V859.896H1291.92V852.439ZM1299.76 859.896C1299.59 859.896 1299.46 859.846 1299.36 859.747C1299.27 859.647 1299.22 859.509 1299.22 859.331V852.439H1304.02V852.95H1299.81V855.827H1303.7V856.338H1299.81V859.374H1304.02V859.896H1299.76ZM1307.5 856.093L1304.96 852.439H1305.63L1307.83 855.603L1310.04 852.439H1310.7L1308.17 856.093L1310.81 859.896H1310.15L1307.83 856.572L1305.52 859.896H1304.85L1307.5 856.093ZM1312.18 855.912C1312.03 855.912 1311.92 855.869 1311.82 855.784C1311.74 855.692 1311.7 855.575 1311.7 855.432C1311.7 855.29 1311.74 855.177 1311.82 855.092C1311.92 854.999 1312.03 854.953 1312.18 854.953C1312.32 854.953 1312.43 854.999 1312.52 855.092C1312.61 855.177 1312.66 855.29 1312.66 855.432C1312.66 855.575 1312.61 855.692 1312.52 855.784C1312.43 855.869 1312.32 855.912 1312.18 855.912ZM1312.18 859.544C1312.03 859.544 1311.92 859.502 1311.82 859.417C1311.74 859.324 1311.7 859.207 1311.7 859.065C1311.7 858.923 1311.74 858.809 1311.82 858.724C1311.92 858.632 1312.03 858.586 1312.18 858.586C1312.32 858.586 1312.43 858.632 1312.52 858.724C1312.61 858.809 1312.66 858.923 1312.66 859.065C1312.66 859.207 1312.61 859.324 1312.52 859.417C1312.43 859.502 1312.32 859.544 1312.18 859.544ZM1316.93 852.439H1321.62V852.961H1317.51V855.912H1321.23V856.434H1317.51V859.896H1316.93V852.439ZM1322.99 852.439H1327.69V852.961H1323.58V855.912H1327.29V856.434H1323.58V859.896H1322.99V852.439ZM1332.67 856.061C1333 856.189 1333.26 856.395 1333.45 856.679C1333.65 856.963 1333.75 857.286 1333.75 857.648V858.074C1333.75 858.643 1333.56 859.104 1333.19 859.459C1332.82 859.807 1332.33 859.981 1331.73 859.981H1330.7C1330.09 859.981 1329.61 859.793 1329.24 859.417C1328.87 859.033 1328.69 858.529 1328.69 857.904H1329.27C1329.27 858.366 1329.4 858.738 1329.66 859.022C1329.93 859.307 1330.27 859.449 1330.7 859.449H1331.73C1332.16 859.449 1332.51 859.324 1332.77 859.076C1333.04 858.82 1333.17 858.486 1333.17 858.074V857.648C1333.17 857.229 1333.04 856.906 1332.77 856.679C1332.51 856.444 1332.15 856.327 1331.7 856.327H1330.64V855.816H1331.7C1332.11 855.816 1332.43 855.702 1332.67 855.475C1332.91 855.248 1333.03 854.935 1333.03 854.538V854.112C1333.03 853.742 1332.91 853.444 1332.68 853.217C1332.44 852.989 1332.13 852.876 1331.75 852.876H1330.72C1330.3 852.876 1329.96 853.018 1329.71 853.302C1329.46 853.586 1329.33 853.959 1329.33 854.42H1328.75C1328.75 853.795 1328.93 853.295 1329.29 852.918C1329.65 852.542 1330.13 852.354 1330.72 852.354H1331.75C1332.31 852.354 1332.76 852.514 1333.1 852.833C1333.44 853.153 1333.61 853.579 1333.61 854.112V854.538C1333.61 854.893 1333.53 855.202 1333.36 855.464C1333.2 855.727 1332.96 855.926 1332.67 856.061ZM1334.98 859.395C1334.98 858.962 1335.04 858.603 1335.17 858.319C1335.3 858.035 1335.52 857.769 1335.83 857.52L1338.46 855.39C1338.86 855.07 1339.06 854.708 1339.06 854.303V853.962C1339.06 853.636 1338.94 853.373 1338.72 853.174C1338.5 852.975 1338.2 852.876 1337.83 852.876H1336.84C1336.44 852.876 1336.12 853.014 1335.87 853.291C1335.63 853.561 1335.51 853.923 1335.51 854.378H1334.93C1334.93 853.767 1335.1 853.277 1335.45 852.908C1335.8 852.538 1336.26 852.354 1336.83 852.354H1337.83C1338.38 852.354 1338.82 852.503 1339.14 852.801C1339.48 853.092 1339.64 853.479 1339.64 853.962V854.303C1339.64 854.864 1339.37 855.361 1338.83 855.795L1336.29 857.829C1336.01 858.05 1335.82 858.27 1335.71 858.49C1335.61 858.71 1335.56 859.001 1335.56 859.363H1339.75V859.896H1334.98V859.395ZM1342.9 859.981C1342.32 859.981 1341.85 859.811 1341.5 859.47C1341.15 859.122 1340.97 858.664 1340.97 858.096H1341.54C1341.54 858.508 1341.66 858.838 1341.91 859.086C1342.16 859.328 1342.49 859.449 1342.9 859.449H1343.82C1344.27 859.449 1344.62 859.296 1344.87 858.991C1345.14 858.678 1345.27 858.245 1345.27 857.691V856.199C1345.05 856.498 1344.79 856.729 1344.49 856.892C1344.18 857.048 1343.85 857.126 1343.48 857.126H1342.76C1342.16 857.126 1341.68 856.935 1341.31 856.551C1340.95 856.168 1340.77 855.656 1340.77 855.017V854.538C1340.77 853.877 1340.97 853.348 1341.38 852.95C1341.78 852.553 1342.32 852.354 1343 852.354H1343.74C1344.38 852.354 1344.88 852.549 1345.27 852.94C1345.66 853.33 1345.85 853.845 1345.85 854.484V857.691C1345.85 858.408 1345.67 858.969 1345.31 859.374C1344.95 859.779 1344.45 859.981 1343.82 859.981H1342.9ZM1343.5 856.594C1343.92 856.594 1344.29 856.466 1344.62 856.21C1344.95 855.954 1345.17 855.642 1345.27 855.273V854.442C1345.27 853.973 1345.13 853.597 1344.84 853.313C1344.56 853.021 1344.2 852.876 1343.74 852.876H1343C1342.51 852.876 1342.11 853.028 1341.8 853.334C1341.51 853.639 1341.36 854.041 1341.36 854.538V855.017C1341.36 855.493 1341.48 855.876 1341.73 856.168C1341.99 856.452 1342.33 856.594 1342.75 856.594H1343.5ZM1348.07 859.896C1347.9 859.896 1347.77 859.85 1347.67 859.758C1347.58 859.658 1347.53 859.523 1347.53 859.353V852.439H1350.48C1350.99 852.439 1351.44 852.538 1351.83 852.737C1352.23 852.936 1352.53 853.217 1352.74 853.579C1352.95 853.941 1353.06 854.357 1353.06 854.825V857.286C1353.06 858.145 1352.84 858.795 1352.41 859.236C1351.98 859.676 1351.36 859.896 1350.52 859.896H1348.07ZM1350.51 859.363C1351.16 859.363 1351.65 859.189 1351.97 858.841C1352.31 858.486 1352.47 857.968 1352.47 857.286V854.825C1352.47 854.264 1352.29 853.813 1351.92 853.472C1351.56 853.131 1351.08 852.961 1350.47 852.961H1348.12V859.363H1350.51Z" fill="white"/>
<rect width="1198" height="545" transform="matrix(-1 0 0 1 1198 535)" fill="#B9FF00"/>
<path d="M82.2144 821V813.191H83.024V821H82.2144ZM87.0401 821L84.3876 817.559H85.3357L88.0308 821H87.0401ZM82.6938 818.049V817.325H84.7817C85.1652 817.325 85.4848 817.25 85.7405 817.101C85.9962 816.952 86.1879 816.75 86.3157 816.494C86.4436 816.238 86.5075 815.947 86.5075 815.62C86.5075 815.294 86.4436 815.002 86.3157 814.747C86.1879 814.491 85.9962 814.289 85.7405 814.14C85.4848 813.983 85.1652 813.905 84.7817 813.905H82.6938V813.191H84.6433C85.2185 813.191 85.705 813.284 86.1027 813.468C86.5075 813.646 86.8129 813.912 87.0188 814.267C87.2319 814.615 87.3384 815.042 87.3384 815.546V815.695C87.3384 816.199 87.2319 816.629 87.0188 816.984C86.8058 817.332 86.5004 817.598 86.1027 817.783C85.705 817.96 85.2185 818.049 84.6433 818.049H82.6938ZM89.1869 821V819.945H90.1883V821H89.1869ZM89.1869 816.984V815.929H90.1883V816.984H89.1869ZM95.8046 821V813.639L96.1561 813.916H94.0362V813.223H96.6035V821H95.8046ZM101.323 821.181C100.769 821.181 100.282 821.082 99.8634 820.883C99.4444 820.677 99.1178 820.4 98.8834 820.052C98.6561 819.704 98.5425 819.306 98.5425 818.859C98.5425 818.525 98.61 818.227 98.7449 817.964C98.8869 817.694 99.0716 817.47 99.2988 817.293C99.5261 817.108 99.7747 816.973 100.045 816.888V816.781C99.8244 816.696 99.622 816.579 99.4373 816.43C99.2527 816.274 99.1 816.086 98.9793 815.865C98.8656 815.645 98.8088 815.386 98.8088 815.088C98.8088 814.662 98.9189 814.296 99.1391 813.99C99.3663 813.685 99.6681 813.451 100.045 813.287C100.428 813.117 100.854 813.032 101.323 813.032C101.806 813.032 102.235 813.117 102.612 813.287C102.988 813.451 103.287 813.685 103.507 813.99C103.727 814.296 103.837 814.662 103.837 815.088C103.837 815.386 103.78 815.645 103.666 815.865C103.56 816.086 103.411 816.274 103.219 816.43C103.034 816.579 102.832 816.696 102.612 816.781V816.888C102.889 816.973 103.141 817.108 103.368 817.293C103.595 817.477 103.777 817.701 103.912 817.964C104.046 818.227 104.114 818.525 104.114 818.859C104.114 819.306 103.997 819.704 103.762 820.052C103.535 820.4 103.212 820.677 102.793 820.883C102.381 821.082 101.891 821.181 101.323 821.181ZM101.323 820.499C101.749 820.499 102.111 820.428 102.409 820.286C102.708 820.144 102.935 819.949 103.091 819.7C103.255 819.445 103.336 819.154 103.336 818.827C103.336 818.5 103.258 818.213 103.102 817.964C102.946 817.715 102.718 817.52 102.42 817.378C102.122 817.236 101.756 817.165 101.323 817.165C100.904 817.165 100.545 817.236 100.247 817.378C99.9487 817.52 99.7214 817.715 99.5652 817.964C99.4089 818.213 99.3308 818.5 99.3308 818.827C99.3308 819.154 99.4089 819.445 99.5652 819.7C99.7214 819.949 99.9487 820.144 100.247 820.286C100.545 820.428 100.904 820.499 101.323 820.499ZM101.323 816.526C101.848 816.526 102.267 816.409 102.58 816.174C102.899 815.933 103.059 815.581 103.059 815.12C103.059 814.658 102.899 814.31 102.58 814.076C102.267 813.841 101.848 813.724 101.323 813.724C100.804 813.724 100.385 813.841 100.066 814.076C99.7534 814.31 99.5971 814.658 99.5971 815.12C99.5971 815.581 99.7569 815.933 100.077 816.174C100.396 816.409 100.812 816.526 101.323 816.526ZM108.353 821.202C107.834 821.202 107.394 821.114 107.032 820.936C106.67 820.751 106.375 820.496 106.148 820.169C105.927 819.842 105.764 819.455 105.658 819.008C105.551 818.553 105.498 818.06 105.498 817.527V817.08C105.498 815.816 105.793 814.85 106.382 814.182C106.971 813.508 107.852 813.17 109.024 813.17C109.265 813.17 109.482 813.177 109.674 813.191C109.865 813.206 110.071 813.227 110.292 813.255V813.948C110.071 813.912 109.858 813.887 109.652 813.873C109.446 813.859 109.223 813.852 108.981 813.852C108.314 813.852 107.777 813.983 107.373 814.246C106.968 814.502 106.673 814.875 106.488 815.365C106.311 815.855 106.222 816.448 106.222 817.144V817.9L106.009 818.529C106.016 817.989 106.119 817.531 106.318 817.154C106.524 816.778 106.812 816.49 107.181 816.291C107.55 816.093 107.983 815.993 108.481 815.993C109.035 815.993 109.503 816.107 109.887 816.334C110.27 816.561 110.558 816.87 110.75 817.261C110.948 817.651 111.048 818.088 111.048 818.571C111.048 819.061 110.945 819.505 110.739 819.903C110.54 820.3 110.242 820.616 109.844 820.851C109.446 821.085 108.949 821.202 108.353 821.202ZM108.353 820.499C108.779 820.499 109.134 820.414 109.418 820.244C109.709 820.073 109.926 819.842 110.068 819.551C110.21 819.26 110.281 818.933 110.281 818.571C110.281 818.209 110.21 817.886 110.068 817.602C109.933 817.311 109.723 817.083 109.439 816.92C109.162 816.75 108.818 816.664 108.406 816.664C108.001 816.664 107.646 816.742 107.341 816.899C107.042 817.055 106.808 817.279 106.638 817.57C106.474 817.854 106.393 818.191 106.393 818.582C106.393 818.916 106.464 819.228 106.606 819.519C106.748 819.81 106.964 820.048 107.255 820.233C107.547 820.411 107.912 820.499 108.353 820.499Z" fill="#1C242E"/>
<path d="M85.6127 837.181C84.9735 837.181 84.4053 837.075 83.9082 836.862C83.4182 836.648 83.0063 836.357 82.6725 835.988C82.3387 835.612 82.083 835.182 81.9055 834.699C81.735 834.209 81.6498 833.694 81.6498 833.154V832.963C81.6498 832.465 81.7315 831.983 81.8948 831.514C82.0653 831.045 82.3103 830.623 82.6299 830.246C82.9495 829.87 83.3472 829.571 83.823 829.351C84.2988 829.131 84.8386 829.021 85.4422 829.021C86.0743 829.021 86.6353 829.142 87.1254 829.383C87.6154 829.618 88.0095 829.948 88.3078 830.374C88.6132 830.8 88.7907 831.294 88.8405 831.855H88.0202C87.9634 831.4 87.8107 831.017 87.5621 830.704C87.3207 830.392 87.0153 830.157 86.646 830.001C86.2767 829.845 85.8754 829.767 85.4422 829.767C84.9877 829.767 84.5758 829.848 84.2065 830.012C83.8372 830.175 83.5247 830.406 83.269 830.704C83.0134 831.002 82.8145 831.354 82.6725 831.759C82.5376 832.157 82.4701 832.593 82.4701 833.069C82.4701 833.573 82.5411 834.035 82.6831 834.454C82.8252 834.866 83.0311 835.221 83.301 835.519C83.5709 835.818 83.8976 836.048 84.2811 836.212C84.6717 836.375 85.1155 836.457 85.6127 836.457C86.2234 836.457 86.7596 836.34 87.2212 836.105C87.69 835.864 88.0522 835.548 88.3078 835.157L87.9882 836.158V833.857H88.7552V835.796C88.4215 836.229 87.9882 836.57 87.4556 836.819C86.923 837.06 86.3086 837.181 85.6127 837.181ZM85.325 834.028V833.346H89.4477V834.028H85.325ZM90.7266 837V835.945H91.728V837H90.7266ZM90.7266 832.984V831.929H91.728V832.984H90.7266ZM95.9487 837V835.818C95.9487 835.512 95.9913 835.253 96.0765 835.04C96.1618 834.827 96.3109 834.632 96.524 834.454C96.737 834.276 97.0282 834.106 97.3975 833.943L98.9208 833.229C99.2901 833.058 99.5849 832.835 99.805 832.558C100.025 832.281 100.135 831.919 100.135 831.471C100.135 830.924 99.979 830.498 99.6665 830.193C99.3612 829.88 98.9386 829.724 98.3989 829.724C97.8662 829.724 97.4401 829.88 97.1205 830.193C96.808 830.498 96.6518 830.924 96.6518 831.471H95.8741C95.8741 831.01 95.97 830.594 96.1618 830.225C96.3535 829.856 96.6376 829.564 97.014 829.351C97.3904 829.131 97.852 829.021 98.3989 829.021C98.9528 829.021 99.4144 829.131 99.7837 829.351C100.153 829.564 100.434 829.852 100.625 830.214C100.817 830.569 100.913 830.963 100.913 831.397V831.546C100.913 832.1 100.753 832.565 100.434 832.941C100.121 833.311 99.7091 833.616 99.1978 833.857L97.6638 834.571C97.3016 834.735 97.0566 834.905 96.9288 835.082C96.808 835.253 96.7477 835.473 96.7477 835.743V836.691L96.5133 836.308H101.041V837H95.9487ZM104.964 837.181C104.374 837.181 103.881 837.064 103.483 836.83C103.085 836.588 102.783 836.272 102.577 835.881C102.372 835.491 102.269 835.072 102.269 834.624H103.046C103.046 834.98 103.121 835.296 103.27 835.573C103.426 835.849 103.646 836.07 103.93 836.233C104.214 836.396 104.559 836.478 104.964 836.478C105.369 836.478 105.713 836.4 105.997 836.244C106.281 836.08 106.498 835.86 106.647 835.583C106.803 835.299 106.881 834.98 106.881 834.624C106.881 834.276 106.807 833.96 106.658 833.676C106.508 833.392 106.288 833.169 105.997 833.005C105.713 832.835 105.369 832.75 104.964 832.75C104.68 832.75 104.399 832.799 104.122 832.899C103.845 832.991 103.614 833.129 103.43 833.314H102.695L103.099 829.223H106.966V829.916H103.536L103.76 829.639L103.44 832.835L103.195 832.781C103.416 832.561 103.675 832.387 103.973 832.26C104.271 832.132 104.612 832.068 104.996 832.068C105.578 832.068 106.068 832.188 106.466 832.43C106.863 832.671 107.162 832.984 107.361 833.367C107.567 833.744 107.67 834.141 107.67 834.561V834.699C107.67 835.118 107.567 835.519 107.361 835.903C107.155 836.279 106.849 836.588 106.444 836.83C106.047 837.064 105.553 837.181 104.964 837.181ZM111.538 837.181C110.949 837.181 110.455 837.064 110.058 836.83C109.66 836.588 109.358 836.272 109.152 835.881C108.946 835.491 108.843 835.072 108.843 834.624H109.621C109.621 834.98 109.696 835.296 109.845 835.573C110.001 835.849 110.221 836.07 110.505 836.233C110.789 836.396 111.134 836.478 111.538 836.478C111.943 836.478 112.288 836.4 112.572 836.244C112.856 836.08 113.073 835.86 113.222 835.583C113.378 835.299 113.456 834.98 113.456 834.624C113.456 834.276 113.381 833.96 113.232 833.676C113.083 833.392 112.863 833.169 112.572 833.005C112.288 832.835 111.943 832.75 111.538 832.75C111.254 832.75 110.974 832.799 110.697 832.899C110.42 832.991 110.189 833.129 110.004 833.314H109.269L109.674 829.223H113.541V829.916H110.111L110.335 829.639L110.015 832.835L109.77 832.781C109.99 832.561 110.25 832.387 110.548 832.26C110.846 832.132 111.187 832.068 111.57 832.068C112.153 832.068 112.643 832.188 113.041 832.43C113.438 832.671 113.737 832.984 113.935 833.367C114.141 833.744 114.244 834.141 114.244 834.561V834.699C114.244 835.118 114.141 835.519 113.935 835.903C113.729 836.279 113.424 836.588 113.019 836.83C112.622 837.064 112.128 837.181 111.538 837.181Z" fill="#1C242E"/>
<path d="M82.8216 853.032V852.318H85.1013C85.5629 852.318 85.9216 852.187 86.1773 851.924C86.44 851.654 86.5714 851.299 86.5714 850.859C86.5714 850.426 86.4436 850.078 86.1879 849.815C85.9322 849.545 85.5701 849.41 85.1013 849.41H82.8216V848.877H84.9841C85.4529 848.877 85.8683 848.945 86.2305 849.08C86.5927 849.208 86.8768 849.414 87.0827 849.698C87.2887 849.982 87.3917 850.355 87.3917 850.816V850.944C87.3917 851.363 87.3029 851.732 87.1254 852.052C86.9478 852.364 86.6815 852.606 86.3264 852.776C85.9713 852.947 85.5239 853.032 84.9841 853.032H82.8216ZM82.2144 853.032V845.191H83.024V853.032H82.2144ZM82.8216 849.261V848.728H84.8137C85.3037 848.728 85.6659 848.597 85.9003 848.334C86.1347 848.064 86.2518 847.727 86.2518 847.322C86.2518 846.903 86.1347 846.562 85.9003 846.299C85.6659 846.037 85.3037 845.905 84.8137 845.905H82.8216V845.191H84.6752C85.4777 845.191 86.0778 845.373 86.4755 845.735C86.8732 846.097 87.0721 846.598 87.0721 847.237V847.365C87.0721 847.812 86.9727 848.178 86.7738 848.462C86.575 848.739 86.2944 848.941 85.9322 849.069C85.5772 849.197 85.1581 849.261 84.6752 849.261H82.8216ZM89.0413 853V851.945H90.0426V853H89.0413ZM89.0413 848.984V847.929H90.0426V848.984H89.0413ZM97.3208 853.181C96.7739 853.181 96.3052 853.085 95.9146 852.893C95.524 852.702 95.2044 852.435 94.9558 852.095C94.7073 851.747 94.5226 851.342 94.4019 850.88C94.2883 850.411 94.2314 849.907 94.2314 849.367V848.867C94.2314 848.107 94.3415 847.439 94.5617 846.864C94.7889 846.289 95.1298 845.838 95.5844 845.511C96.046 845.184 96.6248 845.021 97.3208 845.021C98.0167 845.021 98.592 845.184 99.0465 845.511C99.501 845.838 99.8384 846.289 100.059 846.864C100.286 847.439 100.399 848.107 100.399 848.867V849.367C100.399 849.907 100.339 850.411 100.218 850.88C100.105 851.342 99.9236 851.747 99.675 852.095C99.4265 852.435 99.1069 852.702 98.7163 852.893C98.3257 853.085 97.8605 853.181 97.3208 853.181ZM97.3208 852.457C98.0878 852.457 98.6559 852.187 99.0252 851.647C99.4016 851.107 99.5898 850.266 99.5898 849.122C99.5898 847.929 99.3981 847.07 99.0146 846.544C98.6382 846.012 98.0736 845.745 97.3208 845.745C96.5609 845.745 95.9892 846.012 95.6057 846.544C95.2293 847.07 95.0411 847.922 95.0411 849.101C95.0411 850.252 95.2257 851.1 95.595 851.647C95.9714 852.187 96.5467 852.457 97.3208 852.457Z" fill="#1C242E"/>
<path d="M87.5621 869V861.223H88.3717V869H87.5621ZM82.2144 869V861.223H83.024V869H82.2144ZM82.8429 865.506V864.781H87.7432V865.506H82.8429ZM90.797 869V861.223H91.6066V869H90.797ZM91.4149 869V868.265H95.3031V869H91.4149ZM91.4149 865.41V864.686H94.9409V865.41H91.4149ZM91.4149 861.958V861.223H95.186V861.958H91.4149ZM96.2037 869L99.1545 864.845V865.048L96.4807 861.223H97.3968L99.5913 864.398H99.7404L101.967 861.223H102.851L100.092 865.101V864.899L103.032 869H102.116L99.6659 865.559H99.5167L97.0772 869H96.2037ZM104.167 869V867.945H105.169V869H104.167ZM104.167 864.984V863.929H105.169V864.984H104.167ZM110.348 869.032V868.318H112.628C113.09 868.318 113.448 868.187 113.704 867.924C113.967 867.654 114.098 867.299 114.098 866.859C114.098 866.426 113.97 866.078 113.715 865.815C113.459 865.545 113.097 865.41 112.628 865.41H110.348V864.877H112.511C112.98 864.877 113.395 864.945 113.757 865.08C114.119 865.208 114.403 865.414 114.609 865.698C114.815 865.982 114.918 866.355 114.918 866.816V866.944C114.918 867.363 114.83 867.732 114.652 868.052C114.474 868.364 114.208 868.606 113.853 868.776C113.498 868.947 113.051 869.032 112.511 869.032H110.348ZM109.741 869.032V861.191H110.551V869.032H109.741ZM110.348 865.261V864.728H112.34C112.83 864.728 113.193 864.597 113.427 864.334C113.661 864.064 113.779 863.727 113.779 863.322C113.779 862.903 113.661 862.562 113.427 862.299C113.193 862.037 112.83 861.905 112.34 861.905H110.348V861.191H112.202C113.004 861.191 113.605 861.373 114.002 861.735C114.4 862.097 114.599 862.598 114.599 863.237V863.365C114.599 863.812 114.499 864.178 114.3 864.462C114.102 864.739 113.821 864.941 113.459 865.069C113.104 865.197 112.685 865.261 112.202 865.261H110.348ZM115.952 869L118.818 861.223H120.267L123.228 869H122.397L119.638 861.735L120.075 861.958H118.956L119.414 861.735L116.762 869H115.952ZM117.486 866.529L117.753 865.794H121.364L121.641 866.529H117.486ZM124.794 869V861.223H125.604V869H124.794ZM125.391 865.41V864.675L128.832 864.664V865.399L125.391 865.41ZM125.391 861.948V861.223H129.034V861.948H125.391ZM130.755 869V861.223H131.565V869H130.755ZM131.352 865.41V864.675L134.793 864.664V865.399L131.352 865.41ZM131.352 861.948V861.223H134.995V861.948H131.352ZM139.422 869.181C138.875 869.181 138.407 869.085 138.016 868.893C137.625 868.702 137.306 868.435 137.057 868.095C136.809 867.747 136.624 867.342 136.503 866.88C136.39 866.411 136.333 865.907 136.333 865.367V864.867C136.333 864.107 136.443 863.439 136.663 862.864C136.89 862.289 137.231 861.838 137.686 861.511C138.147 861.184 138.726 861.021 139.422 861.021C140.118 861.021 140.693 861.184 141.148 861.511C141.602 861.838 141.94 862.289 142.16 862.864C142.387 863.439 142.501 864.107 142.501 864.867V865.367C142.501 865.907 142.441 866.411 142.32 866.88C142.206 867.342 142.025 867.747 141.776 868.095C141.528 868.435 141.208 868.702 140.818 868.893C140.427 869.085 139.962 869.181 139.422 869.181ZM139.422 868.457C140.189 868.457 140.757 868.187 141.127 867.647C141.503 867.107 141.691 866.266 141.691 865.122C141.691 863.929 141.5 863.07 141.116 862.544C140.74 862.012 140.175 861.745 139.422 861.745C138.662 861.745 138.091 862.012 137.707 862.544C137.331 863.07 137.143 863.922 137.143 865.101C137.143 866.252 137.327 867.1 137.696 867.647C138.073 868.187 138.648 868.457 139.422 868.457ZM147.256 869.181C146.709 869.181 146.24 869.085 145.85 868.893C145.459 868.702 145.139 868.435 144.891 868.095C144.642 867.747 144.458 867.342 144.337 866.88C144.223 866.411 144.166 865.907 144.166 865.367V864.867C144.166 864.107 144.277 863.439 144.497 862.864C144.724 862.289 145.065 861.838 145.519 861.511C145.981 861.184 146.56 861.021 147.256 861.021C147.952 861.021 148.527 861.184 148.982 861.511C149.436 861.838 149.773 862.289 149.994 862.864C150.221 863.439 150.334 864.107 150.334 864.867V865.367C150.334 865.907 150.274 866.411 150.153 866.88C150.04 867.342 149.859 867.747 149.61 868.095C149.361 868.435 149.042 868.702 148.651 868.893C148.261 869.085 147.796 869.181 147.256 869.181ZM147.256 868.457C148.023 868.457 148.591 868.187 148.96 867.647C149.337 867.107 149.525 866.266 149.525 865.122C149.525 863.929 149.333 863.07 148.95 862.544C148.573 862.012 148.009 861.745 147.256 861.745C146.496 861.745 145.924 862.012 145.541 862.544C145.164 863.07 144.976 863.922 144.976 865.101C144.976 866.252 145.161 867.1 145.53 867.647C145.906 868.187 146.482 868.457 147.256 868.457Z" fill="#1C242E"/>
<path d="M1292.21 821V813.191H1293.02V821H1292.21ZM1297.04 821L1294.39 817.559H1295.34L1298.03 821H1297.04ZM1292.69 818.049V817.325H1294.78C1295.17 817.325 1295.48 817.25 1295.74 817.101C1296 816.952 1296.19 816.75 1296.32 816.494C1296.44 816.238 1296.51 815.947 1296.51 815.62C1296.51 815.294 1296.44 815.002 1296.32 814.747C1296.19 814.491 1296 814.289 1295.74 814.14C1295.48 813.983 1295.17 813.905 1294.78 813.905H1292.69V813.191H1294.64C1295.22 813.191 1295.7 813.284 1296.1 813.468C1296.51 813.646 1296.81 813.912 1297.02 814.267C1297.23 814.615 1297.34 815.042 1297.34 815.546V815.695C1297.34 816.199 1297.23 816.629 1297.02 816.984C1296.81 817.332 1296.5 817.598 1296.1 817.783C1295.7 817.96 1295.22 818.049 1294.64 818.049H1292.69ZM1299.19 821V819.945H1300.19V821H1299.19ZM1299.19 816.984V815.929H1300.19V816.984H1299.19ZM1304.41 821V819.818C1304.41 819.512 1304.45 819.253 1304.54 819.04C1304.62 818.827 1304.77 818.632 1304.98 818.454C1305.2 818.276 1305.49 818.106 1305.86 817.943L1307.38 817.229C1307.75 817.058 1308.05 816.835 1308.27 816.558C1308.49 816.281 1308.6 815.919 1308.6 815.471C1308.6 814.924 1308.44 814.498 1308.13 814.193C1307.82 813.88 1307.4 813.724 1306.86 813.724C1306.33 813.724 1305.9 813.88 1305.58 814.193C1305.27 814.498 1305.11 814.924 1305.11 815.471H1304.33C1304.33 815.01 1304.43 814.594 1304.62 814.225C1304.81 813.856 1305.1 813.564 1305.47 813.351C1305.85 813.131 1306.31 813.021 1306.86 813.021C1307.41 813.021 1307.87 813.131 1308.24 813.351C1308.61 813.564 1308.89 813.852 1309.09 814.214C1309.28 814.569 1309.37 814.963 1309.37 815.397V815.546C1309.37 816.1 1309.21 816.565 1308.89 816.941C1308.58 817.311 1308.17 817.616 1307.66 817.857L1306.12 818.571C1305.76 818.735 1305.52 818.905 1305.39 819.082C1305.27 819.253 1305.21 819.473 1305.21 819.743V820.691L1304.97 820.308H1309.5V821H1304.41ZM1313.42 821.181C1312.83 821.181 1312.34 821.064 1311.94 820.83C1311.55 820.588 1311.24 820.272 1311.04 819.881C1310.83 819.491 1310.73 819.072 1310.73 818.624H1311.51C1311.51 818.98 1311.58 819.296 1311.73 819.573C1311.89 819.849 1312.11 820.07 1312.39 820.233C1312.67 820.396 1313.02 820.478 1313.42 820.478C1313.83 820.478 1314.17 820.4 1314.46 820.244C1314.74 820.08 1314.96 819.86 1315.11 819.583C1315.26 819.299 1315.34 818.98 1315.34 818.624C1315.34 818.276 1315.27 817.96 1315.12 817.676C1314.97 817.392 1314.75 817.169 1314.46 817.005C1314.17 816.835 1313.83 816.75 1313.42 816.75C1313.14 816.75 1312.86 816.799 1312.58 816.899C1312.31 816.991 1312.07 817.129 1311.89 817.314H1311.16L1311.56 813.223H1315.43V813.916H1312L1312.22 813.639L1311.9 816.835L1311.66 816.781C1311.88 816.561 1312.14 816.387 1312.43 816.26C1312.73 816.132 1313.07 816.068 1313.46 816.068C1314.04 816.068 1314.53 816.188 1314.93 816.43C1315.32 816.671 1315.62 816.984 1315.82 817.367C1316.03 817.744 1316.13 818.141 1316.13 818.561V818.699C1316.13 819.118 1316.03 819.519 1315.82 819.903C1315.61 820.279 1315.31 820.588 1314.9 820.83C1314.51 821.064 1314.01 821.181 1313.42 821.181ZM1317.21 819.061V818.06L1320.51 813.074L1321.06 813.511L1317.93 818.262L1318.02 818.422H1323.09V819.061H1317.21ZM1321.28 821V815.524H1322.02V821H1321.28Z" fill="#1C242E"/>
<path d="M1295.61 837.181C1294.97 837.181 1294.41 837.075 1293.91 836.862C1293.42 836.648 1293.01 836.357 1292.67 835.988C1292.34 835.612 1292.08 835.182 1291.91 834.699C1291.74 834.209 1291.65 833.694 1291.65 833.154V832.963C1291.65 832.465 1291.73 831.983 1291.89 831.514C1292.07 831.045 1292.31 830.623 1292.63 830.246C1292.95 829.87 1293.35 829.571 1293.82 829.351C1294.3 829.131 1294.84 829.021 1295.44 829.021C1296.07 829.021 1296.64 829.142 1297.13 829.383C1297.62 829.618 1298.01 829.948 1298.31 830.374C1298.61 830.8 1298.79 831.294 1298.84 831.855H1298.02C1297.96 831.4 1297.81 831.017 1297.56 830.704C1297.32 830.392 1297.02 830.157 1296.65 830.001C1296.28 829.845 1295.88 829.767 1295.44 829.767C1294.99 829.767 1294.58 829.848 1294.21 830.012C1293.84 830.175 1293.52 830.406 1293.27 830.704C1293.01 831.002 1292.81 831.354 1292.67 831.759C1292.54 832.157 1292.47 832.593 1292.47 833.069C1292.47 833.573 1292.54 834.035 1292.68 834.454C1292.83 834.866 1293.03 835.221 1293.3 835.519C1293.57 835.818 1293.9 836.048 1294.28 836.212C1294.67 836.375 1295.12 836.457 1295.61 836.457C1296.22 836.457 1296.76 836.34 1297.22 836.105C1297.69 835.864 1298.05 835.548 1298.31 835.157L1297.99 836.158V833.857H1298.76V835.796C1298.42 836.229 1297.99 836.57 1297.46 836.819C1296.92 837.06 1296.31 837.181 1295.61 837.181ZM1295.33 834.028V833.346H1299.45V834.028H1295.33ZM1300.73 837V835.945H1301.73V837H1300.73ZM1300.73 832.984V831.929H1301.73V832.984H1300.73ZM1305.95 837V835.818C1305.95 835.512 1305.99 835.253 1306.08 835.04C1306.16 834.827 1306.31 834.632 1306.52 834.454C1306.74 834.276 1307.03 834.106 1307.4 833.943L1308.92 833.229C1309.29 833.058 1309.58 832.835 1309.81 832.558C1310.03 832.281 1310.14 831.919 1310.14 831.471C1310.14 830.924 1309.98 830.498 1309.67 830.193C1309.36 829.88 1308.94 829.724 1308.4 829.724C1307.87 829.724 1307.44 829.88 1307.12 830.193C1306.81 830.498 1306.65 830.924 1306.65 831.471H1305.87C1305.87 831.01 1305.97 830.594 1306.16 830.225C1306.35 829.856 1306.64 829.564 1307.01 829.351C1307.39 829.131 1307.85 829.021 1308.4 829.021C1308.95 829.021 1309.41 829.131 1309.78 829.351C1310.15 829.564 1310.43 829.852 1310.63 830.214C1310.82 830.569 1310.91 830.963 1310.91 831.397V831.546C1310.91 832.1 1310.75 832.565 1310.43 832.941C1310.12 833.311 1309.71 833.616 1309.2 833.857L1307.66 834.571C1307.3 834.735 1307.06 834.905 1306.93 835.082C1306.81 835.253 1306.75 835.473 1306.75 835.743V836.691L1306.51 836.308H1311.04V837H1305.95ZM1314.96 837.181C1314.37 837.181 1313.88 837.064 1313.48 836.83C1313.09 836.588 1312.78 836.272 1312.58 835.881C1312.37 835.491 1312.27 835.072 1312.27 834.624H1313.05C1313.05 834.98 1313.12 835.296 1313.27 835.573C1313.43 835.849 1313.65 836.07 1313.93 836.233C1314.21 836.396 1314.56 836.478 1314.96 836.478C1315.37 836.478 1315.71 836.4 1316 836.244C1316.28 836.08 1316.5 835.86 1316.65 835.583C1316.8 835.299 1316.88 834.98 1316.88 834.624C1316.88 834.276 1316.81 833.96 1316.66 833.676C1316.51 833.392 1316.29 833.169 1316 833.005C1315.71 832.835 1315.37 832.75 1314.96 832.75C1314.68 832.75 1314.4 832.799 1314.12 832.899C1313.85 832.991 1313.61 833.129 1313.43 833.314H1312.69L1313.1 829.223H1316.97V829.916H1313.54L1313.76 829.639L1313.44 832.835L1313.2 832.781C1313.42 832.561 1313.67 832.387 1313.97 832.26C1314.27 832.132 1314.61 832.068 1315 832.068C1315.58 832.068 1316.07 832.188 1316.47 832.43C1316.86 832.671 1317.16 832.984 1317.36 833.367C1317.57 833.744 1317.67 834.141 1317.67 834.561V834.699C1317.67 835.118 1317.57 835.519 1317.36 835.903C1317.15 836.279 1316.85 836.588 1316.44 836.83C1316.05 837.064 1315.55 837.181 1314.96 837.181ZM1318.75 835.061V834.06L1322.05 829.074L1322.6 829.511L1319.47 834.262L1319.56 834.422H1324.63V835.061H1318.75ZM1322.82 837V831.524H1323.56V837H1322.82Z" fill="#1C242E"/>
<path d="M1292.82 853.032V852.318H1295.1C1295.56 852.318 1295.92 852.187 1296.18 851.924C1296.44 851.654 1296.57 851.299 1296.57 850.859C1296.57 850.426 1296.44 850.078 1296.19 849.815C1295.93 849.545 1295.57 849.41 1295.1 849.41H1292.82V848.877H1294.98C1295.45 848.877 1295.87 848.945 1296.23 849.08C1296.59 849.208 1296.88 849.414 1297.08 849.698C1297.29 849.982 1297.39 850.355 1297.39 850.816V850.944C1297.39 851.363 1297.3 851.732 1297.13 852.052C1296.95 852.364 1296.68 852.606 1296.33 852.776C1295.97 852.947 1295.52 853.032 1294.98 853.032H1292.82ZM1292.21 853.032V845.191H1293.02V853.032H1292.21ZM1292.82 849.261V848.728H1294.81C1295.3 848.728 1295.67 848.597 1295.9 848.334C1296.13 848.064 1296.25 847.727 1296.25 847.322C1296.25 846.903 1296.13 846.562 1295.9 846.299C1295.67 846.037 1295.3 845.905 1294.81 845.905H1292.82V845.191H1294.68C1295.48 845.191 1296.08 845.373 1296.48 845.735C1296.87 846.097 1297.07 846.598 1297.07 847.237V847.365C1297.07 847.812 1296.97 848.178 1296.77 848.462C1296.57 848.739 1296.29 848.941 1295.93 849.069C1295.58 849.197 1295.16 849.261 1294.68 849.261H1292.82ZM1299.04 853V851.945H1300.04V853H1299.04ZM1299.04 848.984V847.929H1300.04V848.984H1299.04ZM1304.26 853V851.818C1304.26 851.512 1304.31 851.253 1304.39 851.04C1304.48 850.827 1304.63 850.632 1304.84 850.454C1305.05 850.276 1305.34 850.106 1305.71 849.943L1307.24 849.229C1307.6 849.058 1307.9 848.835 1308.12 848.558C1308.34 848.281 1308.45 847.919 1308.45 847.471C1308.45 846.924 1308.29 846.498 1307.98 846.193C1307.68 845.88 1307.25 845.724 1306.71 845.724C1306.18 845.724 1305.75 845.88 1305.44 846.193C1305.12 846.498 1304.97 846.924 1304.97 847.471H1304.19C1304.19 847.01 1304.28 846.594 1304.48 846.225C1304.67 845.856 1304.95 845.564 1305.33 845.351C1305.71 845.131 1306.17 845.021 1306.71 845.021C1307.27 845.021 1307.73 845.131 1308.1 845.351C1308.47 845.564 1308.75 845.852 1308.94 846.214C1309.13 846.569 1309.23 846.963 1309.23 847.397V847.546C1309.23 848.1 1309.07 848.565 1308.75 848.941C1308.44 849.311 1308.02 849.616 1307.51 849.857L1305.98 850.571C1305.62 850.735 1305.37 850.905 1305.24 851.082C1305.12 851.253 1305.06 851.473 1305.06 851.743V852.691L1304.83 852.308H1309.36V853H1304.26ZM1313.28 853.181C1312.69 853.181 1312.2 853.064 1311.8 852.83C1311.4 852.588 1311.1 852.272 1310.89 851.881C1310.69 851.491 1310.58 851.072 1310.58 850.624H1311.36C1311.36 850.98 1311.44 851.296 1311.58 851.573C1311.74 851.849 1311.96 852.07 1312.25 852.233C1312.53 852.396 1312.87 852.478 1313.28 852.478C1313.68 852.478 1314.03 852.4 1314.31 852.244C1314.6 852.08 1314.81 851.86 1314.96 851.583C1315.12 851.299 1315.2 850.98 1315.2 850.624C1315.2 850.276 1315.12 849.96 1314.97 849.676C1314.82 849.392 1314.6 849.169 1314.31 849.005C1314.03 848.835 1313.68 848.75 1313.28 848.75C1312.99 848.75 1312.71 848.799 1312.44 848.899C1312.16 848.991 1311.93 849.129 1311.74 849.314H1311.01L1311.41 845.223H1315.28V845.916H1311.85L1312.07 845.639L1311.76 848.835L1311.51 848.781C1311.73 848.561 1311.99 848.387 1312.29 848.26C1312.59 848.132 1312.93 848.068 1313.31 848.068C1313.89 848.068 1314.38 848.188 1314.78 848.43C1315.18 848.671 1315.48 848.984 1315.68 849.367C1315.88 849.744 1315.98 850.141 1315.98 850.561V850.699C1315.98 851.118 1315.88 851.519 1315.68 851.903C1315.47 852.279 1315.16 852.588 1314.76 852.83C1314.36 853.064 1313.87 853.181 1313.28 853.181ZM1317.06 851.061V850.06L1320.36 845.074L1320.92 845.511L1317.79 850.262L1317.87 850.422H1322.94V851.061H1317.06ZM1321.13 853V847.524H1321.88V853H1321.13Z" fill="#1C242E"/>
<path d="M1297.56 869V861.223H1298.37V869H1297.56ZM1292.21 869V861.223H1293.02V869H1292.21ZM1292.84 865.506V864.781H1297.74V865.506H1292.84ZM1300.8 869V861.223H1301.61V869H1300.8ZM1301.41 869V868.265H1305.3V869H1301.41ZM1301.41 865.41V864.686H1304.94V865.41H1301.41ZM1301.41 861.958V861.223H1305.19V861.958H1301.41ZM1306.2 869L1309.15 864.845V865.048L1306.48 861.223H1307.4L1309.59 864.398H1309.74L1311.97 861.223H1312.85L1310.09 865.101V864.899L1313.03 869H1312.12L1309.67 865.559H1309.52L1307.08 869H1306.2ZM1314.17 869V867.945H1315.17V869H1314.17ZM1314.17 864.984V863.929H1315.17V864.984H1314.17ZM1319.74 869V861.223H1320.55V869H1319.74ZM1320.34 865.41V864.675L1323.78 864.664V865.399L1320.34 865.41ZM1320.34 861.948V861.223H1323.98V861.948H1320.34ZM1325.7 869V861.223H1326.51V869H1325.7ZM1326.32 869V868.265H1330.21V869H1326.32ZM1326.32 865.41V864.686H1329.85V865.41H1326.32ZM1326.32 861.958V861.223H1330.09V861.958H1326.32ZM1332.12 869V861.223H1332.93V869H1332.12ZM1332.72 865.41V864.675L1336.16 864.664V865.399L1332.72 865.41ZM1332.72 861.948V861.223H1336.36V861.948H1332.72ZM1338.08 869V861.223H1338.89V869H1338.08ZM1338.7 869V868.265H1342.59V869H1338.7ZM1338.7 865.41V864.686H1342.23V865.41H1338.7ZM1338.7 861.958V861.223H1342.47V861.958H1338.7ZM1344.5 869V861.223H1345.31V869H1344.5ZM1345.1 865.41V864.675L1348.54 864.664V865.399L1345.1 865.41ZM1345.1 861.948V861.223H1348.74V861.948H1345.1ZM1350.46 869V861.223H1351.27V869H1350.46ZM1351.08 869V868.265H1354.97V869H1351.08ZM1351.08 865.41V864.686H1354.61V865.41H1351.08ZM1351.08 861.958V861.223H1354.85V861.958H1351.08Z" fill="#1C242E"/>
</g>
<defs>
<clipPath id="clip0_2_340">
<rect width="1920" height="1080" fill="white"/>
</clipPath>
</defs>
</svg>
